<svg xmlns="http://www.w3.org/2000/svg" viewBox="0 0 846 1017"><g id="katman_2" data-name="katman 2"><g id="katman_1-2" data-name="katman 1"><path d="M146.8,207.7,147,415H92V0l27.3.2,27.2.3Zm274.2-54c0,131.1.2,155.7,1.5,166.8,4.5,38.3,10.7,60.7,22.3,79.9,5.6,9.3,19.1,23.9,29.3,31.8,26.7,20.4,51.3,29.7,90.9,34.4,12.9,1.6,29.2,1.8,147.8,2.1l133.2.4-.2,27.7-.3,27.7h-115c-121.2,0-144.1-.4-170-3-40-4.1-70.7-13.8-100.4-31.9-28.9-17.6-53.9-43.3-67.4-69.4-12.8-24.7-19.4-48.9-24.7-90.7-1.9-15.4-2-21.6-2-172.8V0h55Zm333.8,54L755,415H700V0l27.3.2,27.2.3ZM244.3,470c57,1.8,89.2,6.4,121.9,17.3C449.1,515,510,580.4,531.1,664.2c9.8,38.9,11.7,92.1,4.9,134.7-15.5,95.8-80.1,170.9-173,200.9-34.6,11.2-72.6,15.9-131,16.4l-31.5.3-.3-27.1-.2-27.2,24.7-.6c50.5-1.3,71.9-3.1,97.3-8.2,83.3-16.7,143.6-76.8,158.5-157.9,7.6-41.3,4.9-95.3-6.6-131.1-20.6-64.5-74.1-113-143-129.7-12.2-3-32.6-6.2-49.4-7.7-20-1.8-94.1-3-189-3-49.5.1-90.6,0-91.2,0-1,0-1.3-6-1.3-26.8,0-14.8.3-27.2.7-27.5C1.7,468.6,209.8,468.9,244.3,470ZM147,798v219H92V579h55Zm607.8-.3-.3,218.8-27.7.3-27.8.2V579h56Z"/></g></g></svg>