<svg xmlns="http://www.w3.org/2000/svg" xmlns:xlink="http://www.w3.org/1999/xlink" viewBox="0 0 462 427.3"><defs><style>.cls-1{fill:#fff;}.cls-2{fill:none;}.cls-2,.cls-3{stroke:#fff;stroke-linecap:round;stroke-linejoin:round;}.cls-3{fill:url(#linear-gradient);}</style><linearGradient id="linear-gradient" x1="172.93" y1="331.3" x2="179.76" y2="331.3" gradientUnits="userSpaceOnUse"><stop offset="0" stop-color="#ffffff"/><stop offset="1"/></linearGradient></defs><g id="katman_2" data-name="katman 2"><g id="OBJECTS"><path class="cls-1" d="M82.39,169.65,81.1,171c1.49.12,2.83.29,4,.49s2.26.44,3.26.69,1.87.52,2.62.8q4,1.52,4,4.22a4.54,4.54,0,0,1-1.66,3.24A15.87,15.87,0,0,1,89,183.3a30.5,30.5,0,0,1-5.45,1.94,21.57,21.57,0,0,1-5.09.7,11.46,11.46,0,0,1-6-1.3,4,4,0,0,1-2.13-3.55,7.28,7.28,0,0,1,1.3-3.67,41.86,41.86,0,0,1,4-5.26,7.23,7.23,0,0,1-2.92-.57,1.44,1.44,0,0,1-.85-1.32,1,1,0,0,1,.33-.8,1.89,1.89,0,0,1,.88-.4,20.57,20.57,0,0,1,2.12-.31c1-.13,2.39-.28,4-.46a30.8,30.8,0,0,1,4.92-4.63,9.32,9.32,0,0,1,4.66-1.78,3,3,0,0,1,.44,0c.16,0,.24,0,.24.11s-.19.34-.57.73-1,1-1.83,1.91l-3,3.1a64.83,64.83,0,0,0,7.72-1.32,14.58,14.58,0,0,0,4.54-1.78,2.86,2.86,0,0,0,1.53-2.3,2.31,2.31,0,0,0-1.63-2.22,13.62,13.62,0,0,0-5-.69,30.25,30.25,0,0,0-4.26.34q-2.4.34-4.35.78c-1.3.29-2.46.6-3.47.93s-1.52.57-1.52.73.05.09.15.13q1.23.42,1.23.69c0,.25-1.25.72-3.77,1.42a24.2,24.2,0,0,1-5.07,1c-.62,0-.93-.28-.93-.85s.67-1.89,2-3.64A10.75,10.75,0,0,1,75,157.62a23.71,23.71,0,0,1,2.69-.81c1.41-.37,3-.72,4.64-1.06s3.4-.62,5.14-.85a37.51,37.51,0,0,1,4.62-.34q4.76,0,7.14,1.55a4.55,4.55,0,0,1,2.39,3.89,5.11,5.11,0,0,1-1.09,3.06,10.82,10.82,0,0,1-3.41,2.78,26.09,26.09,0,0,1-6,2.3A58.52,58.52,0,0,1,82.39,169.65Zm-2.67,3-2.32,2.51a14,14,0,0,0-1.46,1.77,2.52,2.52,0,0,0-.44,1.37,2.41,2.41,0,0,0,1.24,2,6.31,6.31,0,0,0,3.58.86,16.74,16.74,0,0,0,4.62-.7,14.67,14.67,0,0,0,4.12-1.83c1.11-.75,1.67-1.5,1.67-2.27a1.88,1.88,0,0,0-1.23-1.63,14.53,14.53,0,0,0-3.75-1.14Q83.25,173,79.72,172.62Z"/><path class="cls-1" d="M108.63,178.84l-4.48,3.47q-3.2,2.55-4.27,2.55c-.65,0-1.34-.69-2.06-2.06a8,8,0,0,1-1.08-3.59,5,5,0,0,1,.44-2.22,15.48,15.48,0,0,1,1.52-2.35,31.67,31.67,0,0,1,2.94-3.31,20.44,20.44,0,0,1,2.49-2.1,3.48,3.48,0,0,1,1.51-.75,1.88,1.88,0,0,1,1.31.64,1.91,1.91,0,0,1,.65,1.34,3,3,0,0,1-.7,1.4,20.78,20.78,0,0,1-2.18,2.44,48.46,48.46,0,0,1-4.16,3.55l-.48,1.27a1.42,1.42,0,0,0-.2.64c0,.41.23.62.68.62a9.7,9.7,0,0,0,3.3-1.63,41.05,41.05,0,0,0,5.65-4.39c.78-.72,1.44-1.35,2-1.91s1-1.06,1.4-1.55a12.79,12.79,0,0,1,1-1.09,1.37,1.37,0,0,1,.74-.39,1,1,0,0,1,1,.48,3.15,3.15,0,0,1,.35,1.64,3.08,3.08,0,0,1-.6,1.55c-.4.62-1.16,1.67-2.26,3.17s-2.21,3-3.31,4.64-2.22,3.4-3.36,5.41l1.55-1.38c1-.88,2-1.79,3.1-2.74s2-1.71,2.69-2.28,1.59-1.25,2.64-2v1.54q-3.39,3.33-6.14,6.31c-1.84,2-3.25,3.59-4.25,4.78l-1.75,2.09c-.45.54-.86,1-1.22,1.51s-.66.82-.9,1.08-.44.38-.59.38c-.35,0-.67-.32-.94-1a4.26,4.26,0,0,1-.42-1.69,2.36,2.36,0,0,1,.28-1.17A122.21,122.21,0,0,1,108.63,178.84Z"/><path class="cls-1" d="M157.41,167.77l.78.71a21.22,21.22,0,0,1-3.61,3.45,4.84,4.84,0,0,1-2.27,1.08q-.6,0-.6-1,0-2.46,3.54-7.58c2-3,3-4.6,3-4.94s-.13-.44-.4-.44q-.71,0-3.54,2.9a103.34,103.34,0,0,0-7,8.17q-4.72,5.88-6.48,8.41a46.08,46.08,0,0,1,5.49.77q2.15.47,6.23,1.53a43.85,43.85,0,0,0,6,1.24c-1.57,1.64-2.66,2.75-3.25,3.34a4.88,4.88,0,0,1-1.37,1.07,4.29,4.29,0,0,1-2.24,0c-1-.17-2.55-.51-4.7-1s-4.15-.92-6-1.26a28.75,28.75,0,0,0-5.11-.51,7.81,7.81,0,0,0-2.25.28c-.63.18-1.5.48-2.62.91a7.93,7.93,0,0,1-2.35.63c-.65,0-1-.25-1-.74a1.84,1.84,0,0,1,.33-.94c.55-.81,1.09-1.58,1.61-2.32a7,7,0,0,1,1.66-1.72,6.7,6.7,0,0,1,2.54-1,22.82,22.82,0,0,1,4.37-.36q4.09-5.75,7.64-10.19t6.45-7.5a37.55,37.55,0,0,1,5.09-4.63,6.68,6.68,0,0,1,3.46-1.57,2,2,0,0,1,1.41.46,1.62,1.62,0,0,1,.51,1.28Q162.72,159.11,157.41,167.77Z"/><path class="cls-1" d="M173.4,177.94v1.68a24.38,24.38,0,0,1-4.55,4.33,6.79,6.79,0,0,1-3.6,1.46,3.25,3.25,0,0,1-3.06-2,9.34,9.34,0,0,1-1-4.31,7.43,7.43,0,0,1,.2-1.72,6.61,6.61,0,0,1,.48-1.34c.19-.35.53-.9,1-1.65q3.57-5.08,6.54-5.08,1.53,0,1.53,1.08a5.17,5.17,0,0,1-1,2.3,10.27,10.27,0,0,1-1.78,2.22c-1.45,1.29-2.4,2.19-2.85,2.69a2.57,2.57,0,0,0-.66,1.73,1.68,1.68,0,0,0,.67,1.37,2.71,2.71,0,0,0,1.76.56,5.45,5.45,0,0,0,2.61-.8A32.24,32.24,0,0,0,173.4,177.94Zm-1.71-10.26a2,2,0,0,1-1.2-.44,1.35,1.35,0,0,1-.56-1.1,3.63,3.63,0,0,1,1-2.25,3,3,0,0,1,2.19-1.24,1.92,1.92,0,0,1,1.26.42,1.53,1.53,0,0,1,.5,1.23,3.46,3.46,0,0,1-1,2.18A2.93,2.93,0,0,1,171.69,167.68Z"/><path class="cls-1" d="M190.11,173.79q-4.43,4.5-4.42,6.27c0,.66.29,1,.88,1a4,4,0,0,0,1.9-.71q1.16-.69,3.65-2.49v1.59c-2.38,2.14-4.2,3.69-5.48,4.64a5.77,5.77,0,0,1-3.11,1.42c-1.38,0-2.06-.83-2.06-2.48a4.3,4.3,0,0,1,.25-1.45,8.4,8.4,0,0,1,.69-1.48c.29-.51.74-1.25,1.34-2.2s1.3-2,2.09-3.25a15.53,15.53,0,0,0-3.6,2.64,28,28,0,0,0-2.38,2.35c-.66.75-1.36,1.57-2.1,2.48a19.2,19.2,0,0,1-1.64,1.84,1.56,1.56,0,0,1-1,.47c-.54,0-1-.51-1.48-1.54a8.83,8.83,0,0,1-.68-3.58,5.06,5.06,0,0,1,.31-2,13.73,13.73,0,0,1,1.25-2,22.6,22.6,0,0,1,3-3.57,3.69,3.69,0,0,1,2.41-1.14,2.83,2.83,0,0,1,1.3.26.83.83,0,0,1,.49.78,1,1,0,0,1-.15.48,4.22,4.22,0,0,1-.34.46c-.13.14-.39.4-.8.8-2.64,2.68-4,4.42-4,5.22q0,.66.48.66c.2,0,.59-.29,1.17-.88s1.32-1.36,2.24-2.32a37.65,37.65,0,0,1,3.24-3,35.8,35.8,0,0,1,4.26-3,4.48,4.48,0,0,1,2.21-.85c.27,0,.53.34.79,1a5.69,5.69,0,0,1,.39,2.05C191.19,172.58,190.83,173.1,190.11,173.79Z"/><path class="cls-1" d="M196,178.77v.58a3,3,0,0,0,.73,2.11,2.55,2.55,0,0,0,1.91.76,6.89,6.89,0,0,0,2.55-.53,14.27,14.27,0,0,0,2.63-1.4c.87-.58,1.94-1.37,3.19-2.35v1.41a30.44,30.44,0,0,1-5.33,4.79,9.07,9.07,0,0,1-5,1.66,4.36,4.36,0,0,1-3.54-1.58,6.66,6.66,0,0,1-1.31-4.35A8.08,8.08,0,0,1,193,175.5a17.24,17.24,0,0,1,4-4.15,16.18,16.18,0,0,1,3.8-2.25,9.31,9.31,0,0,1,3.37-.76,3.16,3.16,0,0,1,1.87.5,1.7,1.7,0,0,1,.69,1.48,4.53,4.53,0,0,1-1.18,2.88,13.26,13.26,0,0,1-3.61,2.85A37.73,37.73,0,0,1,196,178.77Zm.25-1.49a14.89,14.89,0,0,0,3.88-2,10.64,10.64,0,0,0,2.37-2.29,3.45,3.45,0,0,0,.77-1.59.47.47,0,0,0-.53-.53,3.89,3.89,0,0,0-1.47.53,11.58,11.58,0,0,0-2.06,1.38,10.14,10.14,0,0,0-1.87,2A6.11,6.11,0,0,0,196.24,177.28Z"/><path class="cls-1" d="M264.51,177.85v1.59c-1.59,1.36-2.95,2.46-4.06,3.29a36.11,36.11,0,0,1-3.33,2.25,18.5,18.5,0,0,1-2.75,1.43,5.42,5.42,0,0,1-1.87.42,4,4,0,0,1-3.05-1.26,4.61,4.61,0,0,1-1.18-3.26,10.94,10.94,0,0,1,1-4.55,23.26,23.26,0,0,1,2.9-4.65q1.89-2.4,4.73-5.39a11.79,11.79,0,0,0,2.11-2.48.32.32,0,0,0-.13-.27.37.37,0,0,0-.27-.12c-.32,0-1.3.64-2.94,1.93a84.75,84.75,0,0,0-6.32,5.67c-2.58,2.5-5.35,5.47-8.34,8.92-.16.18-.7.8-1.59,1.87a23.15,23.15,0,0,1-1.9,2.08,1.6,1.6,0,0,1-.95.48c-.47,0-.88-.43-1.22-1.3a7.3,7.3,0,0,1-.52-2.77,3.65,3.65,0,0,1,.64-1.92q.64-1,2.79-3.71c1.43-1.79,2.62-3.29,3.56-4.52s2-2.71,3.09-4.45c.79-1.21,1.37-2.18,1.75-2.9a4.28,4.28,0,0,0,.56-1.91c0-.47-.15-.71-.45-.71-.64,0-1.84.78-3.59,2.33a70,70,0,0,0-6.53,6.93q-3.88,4.59-8.1,10.63c-.92,1.38-1.58,2.31-2,2.78a1.66,1.66,0,0,1-1.29.72c-.58,0-1.13-.57-1.64-1.71a7.34,7.34,0,0,1-.77-2.77,1.32,1.32,0,0,1,.3-.76c2.22-2.7,4-5,5.46-6.87s2.69-3.67,3.79-5.36a35,35,0,0,0,2.42-4.18,6.82,6.82,0,0,0,.75-2.59.87.87,0,0,0-1-1,7.64,7.64,0,0,0-2.74.95q-1.93.93-4.89,2.57t-4.74,2.49a6.88,6.88,0,0,1-2.66.86.74.74,0,0,1-.83-.85,15.76,15.76,0,0,1,.35-2.21,10.19,10.19,0,0,1,.73-2.45,9.76,9.76,0,0,1,2.7-2.44,13.43,13.43,0,0,1,2.4-1.51c.14,0,.2,0,.2.16s-.06.15-.2.28a14.35,14.35,0,0,0-1.53,1.24,2.08,2.08,0,0,0-.63,1,62.24,62.24,0,0,1,8.23-3.85,18,18,0,0,1,5-1.32,1.7,1.7,0,0,1,1.33.87,8.55,8.55,0,0,1,1.07,2,5.51,5.51,0,0,1,.44,1.46,7.6,7.6,0,0,1-.65,2.77c-.44,1.06-1,2.3-1.77,3.71s-1.67,3.17-2.78,5.28q1.31-1.53,2.49-2.85c.79-.87,1.57-1.72,2.35-2.54l2.37-2.51a31.74,31.74,0,0,1,3.67-3.29,33,33,0,0,1,3.81-2.58,6.64,6.64,0,0,1,2.4-1,2,2,0,0,1,1.57.89,3,3,0,0,1,.69,1.89,7.22,7.22,0,0,1-.95,2.55q-1,1.89-2.79,4.83t-4.85,7.58c1.91-1.86,3.89-3.76,6-5.72s3.6-3.39,4.6-4.3a32.14,32.14,0,0,1,2.52-2.07c.92-.64,1.84-1.33,2.77-2.07l2.2-1.76a10.44,10.44,0,0,1,1.44-1,2.38,2.38,0,0,1,1.15-.34c.44,0,1,.45,1.65,1.37a4.86,4.86,0,0,1,1,1.77,1.91,1.91,0,0,1-.59,1.15c-.39.45-1.21,1.27-2.45,2.48a55.68,55.68,0,0,0-5.93,6.77A36,36,0,0,0,255,176.3a11.62,11.62,0,0,0-1.29,4.45,2.15,2.15,0,0,0,.41,1.47,1.7,1.7,0,0,0,1.3.46,4.07,4.07,0,0,0,1.49-.28,10.09,10.09,0,0,0,1.53-.78l1.6-1c.7-.38,1.4-.79,2.07-1.22l1.59-1Q264.23,178,264.51,177.85Z"/><path class="cls-1" d="M276.35,177.94v1.68A24.38,24.38,0,0,1,271.8,184a6.79,6.79,0,0,1-3.6,1.46,3.25,3.25,0,0,1-3.06-2,9.34,9.34,0,0,1-1-4.31,7.43,7.43,0,0,1,.2-1.72,6.61,6.61,0,0,1,.48-1.34c.18-.35.53-.9,1-1.65q3.57-5.08,6.54-5.08,1.53,0,1.53,1.08a5.17,5.17,0,0,1-1,2.3,10.6,10.6,0,0,1-1.77,2.22c-1.46,1.29-2.41,2.19-2.86,2.69a2.57,2.57,0,0,0-.66,1.73,1.68,1.68,0,0,0,.67,1.37,2.71,2.71,0,0,0,1.76.56,5.45,5.45,0,0,0,2.61-.8A32.24,32.24,0,0,0,276.35,177.94Zm-1.71-10.26a1.91,1.91,0,0,1-1.19-.44,1.33,1.33,0,0,1-.57-1.1,3.59,3.59,0,0,1,1.06-2.25,2.92,2.92,0,0,1,2.18-1.24,1.92,1.92,0,0,1,1.26.42,1.53,1.53,0,0,1,.5,1.23,3.46,3.46,0,0,1-1,2.18A2.93,2.93,0,0,1,274.64,167.68Z"/><path class="cls-1" d="M287.61,181.09c2.31-1.87,4.3-3.49,6-4.88l3.9-3.27c.95-.8,1.78-1.47,2.5-2a3.66,3.66,0,0,1,1.39-.83c.38,0,.75.35,1.1,1.09A4.54,4.54,0,0,1,303,173c0,.29-.53,1-1.6,2.06S299.53,177,299,177.6a3.15,3.15,0,0,0-.8,2,1.25,1.25,0,0,0,.46,1,1.64,1.64,0,0,0,1.08.38,3.27,3.27,0,0,0,1.74-.69q1-.69,3.21-2.46v1.63q-2.19,1.89-4,3.25a21.48,21.48,0,0,1-3.11,2.05,5.11,5.11,0,0,1-2.2.68,1.75,1.75,0,0,1-1.3-.54,1.86,1.86,0,0,1-.53-1.35,4.46,4.46,0,0,1,.3-1.58,13.54,13.54,0,0,1,.93-1.91c.42-.73,1-1.62,1.66-2.65l1.89-2.84q-2.56,1.91-4.55,3.68c-1.33,1.18-2.41,2.2-3.25,3.09s-1.5,1.57-2,2.07a3.92,3.92,0,0,1-2.62,1.43c-.87,0-1.3-.57-1.3-1.7a6.45,6.45,0,0,1,1-2.47q1-1.78,2.79-4.54a.88.88,0,0,0,.15-.57c0-.31-.17-.46-.5-.46a3,3,0,0,0-1.6.95q-1,1-4,4a23.18,23.18,0,0,0-1.88,2.21,21.29,21.29,0,0,1-1.49,1.83,1.29,1.29,0,0,1-.91.46q-.9,0-1.68-1.47a7.19,7.19,0,0,1-.78-3.42,5.38,5.38,0,0,1,.52-2.46,20.1,20.1,0,0,1,1.59-2.57,23.6,23.6,0,0,1,2.75-3.19,3.36,3.36,0,0,1,2.25-.95,2.54,2.54,0,0,1,1.23.27.79.79,0,0,1,.51.72,3.29,3.29,0,0,1-.92,1.58,17.49,17.49,0,0,1-2.33,2.28,9,9,0,0,0-1.43,1.64,3.13,3.13,0,0,0-.68,1.41c0,.42.18.62.53.62s1-.53,2.16-1.6,2.43-2.24,3.81-3.51a38.49,38.49,0,0,1,3.85-3.14,5.55,5.55,0,0,1,3-1.26,1.64,1.64,0,0,1,1.24.52,1.78,1.78,0,0,1,.49,1.28,4.8,4.8,0,0,1-.75,1.82,33.52,33.52,0,0,1-2.2,3.26C290.38,177.69,289.13,179.25,287.61,181.09Z"/><path class="cls-1" d="M307.46,173.83a31,31,0,0,1,7.42-4.71,15.66,15.66,0,0,1,5.55-1.54,1.45,1.45,0,0,1,1,.41,3,3,0,0,1,.72.93,1.92,1.92,0,0,1,.26.78.65.65,0,0,1-.35.61,7.66,7.66,0,0,1-1.23.47c.12.24.27.56.45.94s.33.69.43.93a1.68,1.68,0,0,1,.15.63,4.77,4.77,0,0,1-1.22,2.06c-.81,1-1.38,1.74-1.71,2.21a3.08,3.08,0,0,0-.49,1.75,1.51,1.51,0,0,0,1.71,1.7q1.75,0,5.51-3v1.4q-6.36,6.45-9.1,6.46a1.6,1.6,0,0,1-1.4-.59,3,3,0,0,1-.41-1.73,15,15,0,0,1,1.43-5.26c-2.45,2.48-4.26,4.24-5.45,5.29a5,5,0,0,1-2.94,1.57,2.27,2.27,0,0,1-1.39-.87,8.34,8.34,0,0,1-1.47-2.26,6.94,6.94,0,0,1-.64-2.88,6.18,6.18,0,0,1,.23-1.81,4.24,4.24,0,0,1,.88-1.48A22.12,22.12,0,0,1,307.46,173.83Zm12-2.52a56.17,56.17,0,0,0-9.31,4.64q-2.78,1.91-2.78,3.92a2.41,2.41,0,0,0,.28,1.21.85.85,0,0,0,.75.47,3,3,0,0,0,1-.32,19.59,19.59,0,0,0,4.83-3.71C315.71,176,317.46,173.92,319.5,171.31Z"/><path class="cls-1" d="M325.16,179.71v-1.49a23.44,23.44,0,0,0,2.06-2.5,2.88,2.88,0,0,1-1.17-.62,1.54,1.54,0,0,1-.36-1.11,4.42,4.42,0,0,1,.75-2.09,11.78,11.78,0,0,1,1.86-2.36,5.89,5.89,0,0,1,2-1.43A1.77,1.77,0,0,1,331,168c.33,0,.5.15.5.44a4.12,4.12,0,0,1-.78,1.58,64.31,64.31,0,0,1,6.54-.73,2,2,0,0,1,.73.09,1.62,1.62,0,0,1,.7,1,4.24,4.24,0,0,1,.28,1.51,1.73,1.73,0,0,1-.47,1.05c-.31.37-.84.92-1.59,1.64a13.46,13.46,0,0,0-2.24,2.85,5.35,5.35,0,0,0-.91,2.32c0,.72.49,1.08,1.46,1.08s2.8-.95,5.33-2.85v1.54q-2.09,2-3.44,3.14a18.24,18.24,0,0,1-2.52,1.83,4.19,4.19,0,0,1-2.06.68,2.17,2.17,0,0,1-1.76-.89,4,4,0,0,1-.7-2.56,5.67,5.67,0,0,1,.55-2.25,15.22,15.22,0,0,1,1.62-2.74c.72-1,1.52-2,2.4-3-.47.1-1,.19-1.58.29l-1.86.31-1.51.25A16.79,16.79,0,0,1,325.16,179.71Z"/><path class="cls-1" d="M352.45,177.69v1.7q-5.25,6.36-8.54,6.36a3.11,3.11,0,0,1-2.8-1.78,9.32,9.32,0,0,1-1-4.67,16.22,16.22,0,0,1,1.21-5.57,38.5,38.5,0,0,1,3.23-6.55,40.8,40.8,0,0,1,4.19-5.79,15.37,15.37,0,0,1,4-3.45,2.66,2.66,0,0,1,1.18-.42.69.69,0,0,1,.7.43,4.13,4.13,0,0,1,.18,1.46q0,3.19-2.84,7.84a48.06,48.06,0,0,1-7.92,9.5,9.47,9.47,0,0,0-.25,1.84,3.89,3.89,0,0,0,.69,2.39,2.27,2.27,0,0,0,1.92.92,2.63,2.63,0,0,0,1.36-.45,12.29,12.29,0,0,0,1.53-1.12C349.85,179.89,350.9,179,352.45,177.69Zm-7.51-4.13a24.06,24.06,0,0,0,2.53-2.67,33.31,33.31,0,0,0,2.3-3.19,24.58,24.58,0,0,0,1.69-3.06,5.58,5.58,0,0,0,.62-2c0-.35-.14-.53-.4-.53a1.64,1.64,0,0,0-.58.25,15.44,15.44,0,0,0-3.45,4.49A25.59,25.59,0,0,0,344.94,173.56Z"/><path class="cls-1" d="M364.24,177.94v1.68a24.08,24.08,0,0,1-4.55,4.33,6.73,6.73,0,0,1-3.59,1.46,3.26,3.26,0,0,1-3.07-2,9.33,9.33,0,0,1-1-4.31,6.93,6.93,0,0,1,.2-1.72,5.59,5.59,0,0,1,.48-1.34,17.8,17.8,0,0,1,1-1.65c2.38-3.39,4.55-5.08,6.53-5.08q1.53,0,1.53,1.08a5.17,5.17,0,0,1-1,2.3,10,10,0,0,1-1.77,2.22,38.32,38.32,0,0,0-2.85,2.69,2.53,2.53,0,0,0-.67,1.73,1.69,1.69,0,0,0,.68,1.37,2.69,2.69,0,0,0,1.76.56,5.42,5.42,0,0,0,2.6-.8A31.38,31.38,0,0,0,364.24,177.94Z"/><path class="cls-1" d="M383,177.94v1.54a49,49,0,0,1-4.73,4.56,5.53,5.53,0,0,1-3.19,1.55,3.91,3.91,0,0,1-2.22-.66,6.7,6.7,0,0,1-1.79-1.84,33.44,33.44,0,0,1-1.87-3.26q-1.29,1.44-2.31,2.7c-.69.83-1.17,1.39-1.44,1.66a1.08,1.08,0,0,1-.72.42,1.05,1.05,0,0,1-1-.8,6.78,6.78,0,0,1-.3-2.31,14.65,14.65,0,0,1,.54-4,17,17,0,0,1,1.56-3.73,33.81,33.81,0,0,1,2.62-3.92q1.59-2.1,3.58-4.4c1.82-2.11,3.4-3.84,4.72-5.18a26.22,26.22,0,0,1,3.46-3,4.67,4.67,0,0,1,2.45-1c.8,0,1.21.33,1.21,1s-1.49,2.61-4.45,6.13-7.29,8.31-13,14.39v2a117.41,117.41,0,0,1,9.18-8.29q3.48-2.71,5.4-2.71a1.32,1.32,0,0,1,1.2.84,4.14,4.14,0,0,1,.43,1.94,5.59,5.59,0,0,1-2.11,4.17,37.81,37.81,0,0,1-6.49,4.4,8.52,8.52,0,0,0,1.33,1.5,2.23,2.23,0,0,0,1.46.47,3.67,3.67,0,0,0,1.69-.48,12.44,12.44,0,0,0,1.84-1.22C380.69,179.84,381.66,179.05,383,177.94ZM373,179.12a19.56,19.56,0,0,0,2.37-1.78,16.78,16.78,0,0,0,2.43-2.51,3.89,3.89,0,0,0,1-2.17.33.33,0,0,0-.36-.37c-.63,0-1.73.56-3.28,1.68a25.44,25.44,0,0,0-4.53,4.3A4.85,4.85,0,0,1,373,179.12Z"/><path class="cls-2" d="M354.39,325.76c1.83,1.32,4.46,2.28,6.79,1.58,3.1-.92,2.53-4.24-.43-4.92-5.18-1.2-8.34,6.12-10.17,9.37a51.15,51.15,0,0,0-3.4,8.18c.39-.23.27-.43.35-.78"/><path class="cls-2" d="M347.86,318c3.93-.42,8-1.5,9.81-5.06,1.45-2.81,0-6.21-3.84-4.72-7.2,2.83-6.67,13-6.94,18.85a99.51,99.51,0,0,0,.31,12.33v-.51"/><path class="cls-2" d="M346.87,339.49c-.3-4.3-.44-8.63-.93-12.91-.36-3.09-1.05-6.16-3.36-8.55-2-2-5.5-4.55-8.7-3.82-2.85.64-4.89,5-1.44,6.23,1.85.67,4.16-.13,6-.5a17.81,17.81,0,0,1,5.15-.49"/><path class="cls-2" d="M346.59,339.58c-.54-5.1-3.36-11.21-8.51-13.9-1.83-.95-5-2.24-6.44-.13a3.84,3.84,0,0,0,2.68,5.69c2.67.35,5.55-1.3,8.31-1.3"/><path class="cls-2" d="M267.94,337.7a19.63,19.63,0,0,0,7.22-3.21c1.36-1.13,1.69-2.37,2.28-3.84"/><path class="cls-2" d="M268.49,332.33c2.17-1.07,4.92-4.38,4.8-6.85"/><path class="cls-2" d="M266.49,323.4c-5.25,1.3-5.8,8.21-5.8,7.93"/><path class="cls-2" d="M269.49,321.56c.69-.77,2.34-2,3.42-1.95"/><path class="cls-2" d="M272.73,342.58c4.1-.75,5.66-2.3,7.62-4.93a17.57,17.57,0,0,0,3.35-7.16c.24-1.09,1.66-5.72-.34-5.91-1.27-.12-3.35,3.39-4.07,4.23.43-1.12,1.67-2.07,2.42-3a20.92,20.92,0,0,0,2.19-3.56,10.26,10.26,0,0,0,1.1-3.34c.12-1,.75-3.09-.1-3.73-1.53.82-3.45,1-5,2a26,26,0,0,0-4,3.34c.71-2,4.83-5.14,4.13-7.41-.91,0-1.56-.32-2.48-.29s-1.88.17-2.73.26a14.67,14.67,0,0,0-4.22,1.36c-3.32,1.52-3.93,4-5.94,6.66"/><path class="cls-2" d="M253.8,334.11c-3-3.75-1.77-9.15,1.47-12.39a35,35,0,0,1,5.45-4.26c2-1.3,4.72-3.44,7.22-3.32l-.68,3.19"/><path class="cls-2" d="M260.45,342.39a.39.39,0,0,1,.37.19,12.53,12.53,0,0,1,5.28.18c1.58.42,3.18,1.42,4.9.93,2-.57,1.88-2.28.56-3.48s-3.3-1.22-5-1.34c1-1.13,2.61-2.24,2.7-3.72a3.56,3.56,0,0,0-2.54-3.65c-3.29-.73-4.36,3.36-5.51,5.24.13-1.52.61-5.15-1.72-5.68-3.23-.73-1.91,3.43-2,4.66-.3-1.54-2.35-2.68-3.63-1.61a3.46,3.46,0,0,0-1.14,2.2c.11,1,1,1.14,1.73,1.77,1.1,1,3,3.17,3,4.68,0,1.7-2.16,2.68-3.68,3.14-.43,1.11.45,1.76,1.6,1.92a3.2,3.2,0,0,0,2.68-.94c1.26-.95,2.64-2.58,2.46-4.15Z"/><path class="cls-2" d="M315.67,381c1.36.22,7.59,1.15,8.46.71"/><path class="cls-2" d="M316.64,374.09c-.16,2.26-.12,4.71-1.25,6.78"/><path class="cls-2" d="M307.88,384.08c.65-.33,6.09,1.54,7.46,1.88,1.18.3,3.05,1,4.13.77"/><path class="cls-2" d="M297.87,390.18c.42,1.18,11.78,1.42,13.81,1.54s4-.19,5.86.36"/><path class="cls-2" d="M309.42,376c.1,2.31-.15,6.07-1.54,8.06"/><path class="cls-2" d="M299.08,375.83c1.28,4.5-.91,9.5-1.3,13.37"/><path class="cls-2" d="M293.78,377.17c.28,2.43-3,19-4.91,17.93"/><path class="cls-2" d="M288.87,395.1c6.85,1.6,14.14,2.22,20.83,4.34"/><path class="cls-2" d="M312,406.47c10.78-1.79,15.53-12,18.48-20.47,1.92-5.49,3.48-9.94,7.82-14.26-11.42,2.64-22.82-1.55-34.32-1.69-5-.06-9.38.58-13.53,3.25a24.7,24.7,0,0,0-9.12,11.51c-1.81,4.4,0,10.48,3.61,13.69a39,39,0,0,0,15.44,8.09A30.1,30.1,0,0,0,312,406.47Z"/><path class="cls-2" d="M322.59,376.84c-1.63-.17-4.13,2.15-5.66,2.92-2.41,1.19-4.87,2.32-7.28,3.45-3.55,1.66-6.49,4-9.86,5.7-6.6,3.29-12.31,7.38-19.12,10.65-1.7.82-3.79,1.48-5.57,2.19-1.11.44-4.23,1.81-5,1.27"/><path class="cls-2" d="M24.84,153.1c-.08.27-.08.29,0,0a13.52,13.52,0,0,0-3.78-8.39,14.77,14.77,0,0,1-3.14-5.26c-1.55-4-3.07-8.9-2.18-12.88a40,40,0,0,1,6,5.84,16.16,16.16,0,0,1,3.6,6,19.49,19.49,0,0,1,.61,7.4C25.87,147.42,24.84,153.1,24.84,153.1Z"/><path class="cls-2" d="M25.35,151.83c.17-2.26-2.25-9.08-3.43-11-1.29-2.06-2.14-4.43-3.61-6.4"/><path class="cls-2" d="M40.38,144.65c-1.17.93-12.84,6.68-15.22,10.84"/><path class="cls-2" d="M47.64,129.91c-6.43-.91-10.77,4-10.49,4"/><path class="cls-2" d="M43.36,162.12c-1.73-.08-14.6,9.06-21.12,16.65"/><path class="cls-2" d="M21.33,178.3c0-1-1-10-1.24-11a25.74,25.74,0,0,0-1.88-4.86c-.91-1.91-3.36-5.52-3.46-5.26"/><path class="cls-2" d="M21.06,179.88c-2-7.56-4.93-15-9.76-21.45-1.39-1.85-2.65-3.75-4-5.64-1.18-1.65-3-3-4-4.73,6.4,1.19,10.42,3.84,14.38,8.55,3.44,4.1,4.22,8.67,4.42,13.72a38.6,38.6,0,0,1-.91,9.21Z"/><path class="cls-2" d="M31.5,118.26c-.18-2.26-.61-4.74.41-6.84,3.39.3,5.53,5.62,6,8.16a7.45,7.45,0,0,1-.42,4.44c-.3.68-.74,3.24-1.64,3.43-1.09.23-1.77-1.72-2.14-2.41A17.09,17.09,0,0,1,31.5,118.26Z"/><path class="cls-2" d="M45.52,125a26.17,26.17,0,0,1,12,1.5c-.76.54-1.1,1.68-1.71,2.4a20,20,0,0,1-2,2.12,15.29,15.29,0,0,1-5.5,2.74c-2.39.74-4.9.26-7.34.24-1.58,0-4.72.87-4.8-1.18-.07-1.71,2.17-4.16,3.47-5.23A13.15,13.15,0,0,1,45.52,125Z"/><path class="cls-2" d="M24.44,156c2.17-5.57,3.26-10,9.49-12.84,2.4-1.07,5-2.57,7.61-3.09,1.88-.38,5.88-1.14,7.66-.56-.48,1.09-1.67,2-2.42,3a31.73,31.73,0,0,0-2.28,4.07c-1.21,2.12-4,3.69-6,5s-4.47,1.52-7,2.19C29.64,154.3,24.44,156,24.44,156Z"/><path class="cls-2" d="M29.78,163.7c3.82-3.17,9.92-4.81,14.85-6.19,2.69-.75,9.19-3.43,9.4-3.42.22-.28.54-.44.74-.67-2.43,5.93-4.1,11-10.22,14.52-4.74,2.75-10,4.74-14.91,7.2-1.37.68-2.61,1.59-3.89,2.39s-3.29,1.33-4,2.46C21.78,180,24.8,167.84,29.78,163.7Z"/><path class="cls-2" d="M35.74,127.35c-2.07,1.13-1.16,6.24-1.25,8.08a.57.57,0,0,1-.08-.44"/><path class="cls-2" d="M37.15,133.93c-.85.94-2.37,1.3-3.35,2.3a29,29,0,0,0-2.95,3.7,36,36,0,0,0-4.75,9.42,60.81,60.81,0,0,0-3.34,20.9c.16,4-1.53,10.68-2.7,14.58"/><path class="cls-2" d="M192.16,338.39c-.84-4.14-2.51-7.84-6-10.68-3.34-2.71-8-4.1-12.31-4.95-1.69-.33-5.37-1.23-6.87.06s.13,3.1,1,4.19a64.19,64.19,0,0,0,10,9.21,23.12,23.12,0,0,0,12.91,4,14.89,14.89,0,0,0,1,3.72,11.31,11.31,0,0,0,1.91,2.65c1.57,1.69,3.16,3.85,5.68,2.07-2.56-1.73-3.55-4.87-4.32-7.56-.83-2.9,2.31-3.73,4.5-5.3s4.38-3.32,5.42-5.78a23.77,23.77,0,0,0,1.74-9.76,18.31,18.31,0,0,0-3.37-9.56c-.62.86-1.6,1.06-2.48,1.6a10.58,10.58,0,0,0-2.2,2,42.35,42.35,0,0,0-5.15,6.4,28.1,28.1,0,0,0-2.77,5.9,12.44,12.44,0,0,0-.94,3.76c0,1.31.61,1.17.49,2.41"/><path class="cls-2" d="M192,339.83c-1.2-1.08-5.72-5-7-6a60,60,0,0,0-5.29-3.52,58.31,58.31,0,0,0-8.94-5.21.63.63,0,0,0,.64.27"/><path class="cls-2" d="M193.85,338.5c.37-4.67,1.75-9,2.51-12.28a61.9,61.9,0,0,1,1.39-6.4c.37-1,1.82-3.31,1.65-3.89"/><path class="cls-2" d="M204.09,319.65a11.14,11.14,0,0,1-3.24,3.58c-1.46,1.08-2.67,2.49-4.49,3-.05.21-.29,0,0,0"/><path class="cls-2" d="M203.55,327c-4.23,1.52-8.71,6.42-8.6,6.35"/><path class="cls-2" d="M195,333.33c-1.55-1.91-1.08-2.16-1.72-3.72-.56-1.35-.89-2.87-2-3.91a.54.54,0,0,0,.43.18"/><path class="cls-2" d="M196.36,326.22c0,.3,0-.31,0,0-1.07-1.51-1.21-3.49-2.18-5.16.27.16.29.33.43.57"/><path class="cls-3" d="M179.76,330.28c-.79.2-2.37,1-3.16,1.21-1.09.29-2.58,1-3.67.79h.26"/><path class="cls-2" d="M179.76,330.28c-1.15-1.86-.61-4.82-2.28-6.34.27.14.3.3.44.54"/><path class="cls-2" d="M183.71,326.78c0-.27-.09-.37-.33-.31.46,1.26.45,2.67.82,4,.29,1,.11,2.56.85,3.37"/><path class="cls-2" d="M185.05,333.8c.07.22.1-.21,0,0a23.91,23.91,0,0,0-7.24,1.86c-.28,0-.26,0,.06,0"/><path class="cls-2" d="M421.65,156.94a3.3,3.3,0,0,1,2.07,2.59c-.2,2.3-3.6,1.87-4.43.22S419.44,156.27,421.65,156.94Z"/><path class="cls-2" d="M421.9,147.6c1.25-.39,2.44.74,2.94,1.64-1-.37-2.78-3-1.64-3.86,1.53-1.16,2.71,1.84,3.26,2.4-.61-1.57-.95-4.28,2-3.21,1.41.51,3,2.47,3.65,3.64,1.55,2.69.85,8.62-3.66,8.17C424.34,156,421.29,151.08,421.9,147.6Z"/><path class="cls-2" d="M437.45,160.94c0-.91.45-2.91,1.45-3.37,1.6-.75,2.16,2,2,3.12-.09-1.15.3-3.92,1.91-4.28,1.9-.42,1.51,2.86,1.51,3.92,1.51-4.33,5-1.35,4.05,2-.7,2.6-3.22,5.93-6.5,5.83C438.33,168.07,437.31,163.52,437.45,160.94Z"/><path class="cls-2" d="M405.36,160.87c-1-.61-3.58-2.3-3.41-3.58.27-2.08,3.26-.48,4.21.31-1.64-.47-5.47-3-4.29-4.75,1.4-2.06,3.85.43,4.76,1.53-.93-.94-1.93-3.06-.61-4.09s3.17.4,4.08,1.31c2,2,4.12,5.28,3.41,8.16C412.7,163.09,407.64,162.25,405.36,160.87Z"/><path class="cls-2" d="M414.36,180.23c-1.12-.44-2.93-1.29-2.82-2.62s2.16-1.57,3.31-.76c-1.59-.41-4.17-.85-4.44-2.75-.38-2.61,2.49-1.31,3.77-.56-1.47-.68-3-2.48-.78-3.31,1.56-.58,4.13.66,5.55,1.24C426.06,174.39,421.2,182.9,414.36,180.23Z"/><path class="cls-2" d="M441.66,178.76c2.54,2.4.11,7.92-3.63,4.76C435.25,181.18,438.8,176.06,441.66,178.76Z"/><path class="cls-2" d="M419.12,160.34a4.82,4.82,0,0,0,.37,4.11"/><path class="cls-2" d="M437,182.73c-1.16.8-2.57,1-3.75,1.68-1,.53-2.93,2-2.59,3.22"/><path class="cls-2" d="M413.08,160.79c0-.26.09-.39.37-.39,2.46,1.53,5.13,2.76,6.86,5.09a60.48,60.48,0,0,1,3.87,6.2c2.62,4.57,5.22,8.64,6.07,13.81.25,1.49.68,2.92.9,4.41s.15,3.34.91,4.66a.83.83,0,0,0,.08-.67"/><path class="cls-2" d="M421.13,179.33c1.65.24,8,8.48,9.49,9"/><path class="cls-2" d="M428,156.26c-.16.92.53,2,.66,2.88.16,1.13.4,2.23.48,3.4.15,2.24.3,4.47.38,6.79.08,2.11.39,4.2.39,6.45,0,1.93-.58,4.84.41,6.51a2.44,2.44,0,0,0-.42-.59"/><path class="cls-2" d="M439.32,167.2c-.09,1.3-2.29,3.61-3.07,4.75-1,1.41-4.14,6.5-4.86,7.67a34.38,34.38,0,0,0-1.54,3.82"/><path class="cls-2" d="M371.57,311.27c-2-1.44-5.07-2.29-7.4-1.11,0,1.7,2.69,3.41,4.12,4.35,3.33,2.19,4.78.3,6.58,1.56C374.66,316.07,372.57,312,371.57,311.27Z"/><path class="cls-2" d="M380.46,311.27c.38-.75.26-1.67.74-2.3-2-.21-5.34.34-6.47,2.07s-.14,3.92.67,5.6C379.82,314.45,380.13,311.92,380.46,311.27Z"/><path class="cls-2" d="M378.12,331.39c.52-.45,0-2.2-.24-2.93a7.27,7.27,0,0,0-3.62-3.46c-2.21-1-5.06-.41-7.24-.53.45,4.56,6.67,7.94,11.1,6.92,0,.4.31-.23,0,0Z"/><path class="cls-2" d="M388.85,322A4.9,4.9,0,0,0,387.6,317c-1.25.16-3.17,3.08-3.6,4.16C382.2,325.68,387.62,325.93,388.85,322Z"/><path class="cls-2" d="M390.07,326.76a6.84,6.84,0,0,0,4.15-2.57,12.06,12.06,0,0,0-4.91-.65c-1.12.19-4.32,1.22-3.57,2.55C386.28,327.05,389.13,326.93,390.07,326.76Z"/><path class="cls-2" d="M385.05,341.56a9,9,0,0,0,6.18-3.48c1.22-1.47,2.26-4,1.83-5.77-1.72-.5-4.6,1.64-5.78,2.68-2,1.76-2,3.17-1.89,5.57q0,.38,0-.06Z"/><path class="cls-2" d="M390.76,345.16a8.74,8.74,0,0,0,5.62-2.62c-2.09-1.28-3.45-2-6-1.66-2.39.35-3.85.63-5.6,2.17C385.92,344.63,388.73,345.45,390.76,345.16Z"/><path class="cls-2" d="M369.08,343.07c1-1.26,2.43-1.74,3.13-3.56s1.21-2.91.33-4.5c-1.83-.59-4.54,1.58-5.19,3-1.12,2.47.53,4.9.76,7.14-.11-.07.52-.85.41-.93Z"/><path class="cls-2" d="M365.32,338.83c-1-1.14-4.3-1.85-4.3-1.85s0,4.83,1.15,6.27a5.15,5.15,0,0,0,5.94,1.92C367,342.33,367.06,340.74,365.32,338.83Z"/><path class="cls-2" d="M359.29,348.64c-2.45-.53-6.3,2.56-7.35,4.42-1.52,2.67-1.64,11.9,3.32,7.16a14.28,14.28,0,0,0,3.41-5.65C358.85,354,360.1,348.81,359.29,348.64Z"/><path class="cls-2" d="M379.88,355.8c-1.36-1.51-4.94-1.82-6.84-2s-6.52-.43-6.59,2.05c0,1.71,2.29,2.7,3.8,3a13.61,13.61,0,0,0,5.61-.32C376.26,358.39,380.47,356.45,379.88,355.8Z"/><path class="cls-2" d="M367.36,368.8c2.49,1.3,4.92,1.91,7.54.52a15.91,15.91,0,0,0-4.77-4.9c-1.41-.77-5.75-2.29-6.84-.53,0,0,0,0,0,0C364.56,365.67,365.22,367.68,367.36,368.8Z"/><path class="cls-2" d="M360.23,362.85c.17.8-.47,2.07-.65,2.82a3.89,3.89,0,0,0,.09,2.73,7.13,7.13,0,0,0,3.5,4.44c0-2.1,1.77-3.63,1.06-5.76-.37-1.09-2.86-3.54-4-3.18Z"/><path class="cls-2" d="M379,332.33a28.59,28.59,0,0,1,2.87-4.5c.46-.6,2.47-2.63,4.11-3"/><path class="cls-2" d="M375.62,344.62c.62,1,4.53-.53,5.53-.83a40.74,40.74,0,0,0,4.23-1.84,2.24,2.24,0,0,1-.3.65"/><path class="cls-2" d="M364.58,356.45a37.66,37.66,0,0,0,3.23-5.52,19.83,19.83,0,0,0,.61-5.62.47.47,0,0,1-.4.23"/><path class="cls-2" d="M363.28,363.73c-1-1.78-8.31-1.75-8.35-2"/><path class="cls-2" d="M375.75,316.34c4.15,9.82,4.73,19.3-.84,28.83A38,38,0,0,1,354.61,362c-5.77,1.9-11.92,2.12-18,2.29"/><path class="cls-2" d="M27.17,282.16c-4.63-3.49-10.5-6.73-9.43-13.09.33-1.92,1.47-4.43,3.73-5,2.71-.66,4.85,1.34,5.66,3.48-1.18-3.38-.28-6.64,3.83-7.73,3.65-1,6.67,1.41,8.94,3.73,5,5.1,4.61,12.13,0,17.27"/><path class="cls-2" d="M33.13,281.51c-1.57-1.87-5-6.25-3.94-8.66"/><path class="cls-2" d="M23.05,270.13c-.19-.23-.21-.24,0,0,.56.66,1.11,1.32,1.67,2"/><path class="cls-2" d="M37.2,279.33c-.3-1.44-2-7.34-.5-9.57"/><path class="cls-2" d="M34.48,264.28a11.52,11.52,0,0,1-.95,2.87"/><path class="cls-2" d="M25.35,283.49c-3.52-1.43-8.43-3.5-12.36-3.34-2.56.11-4.64,1.4-7.24,1.16-2.37-.22-6.1-1.2-5.08-4.16.85-2.47,5.1-3.51,7.58-3.39-1.95,0-5.59-.23-6.07-2.48-.42-2,2.33-4.1,4.11-4.67,3.64-1.17,8.58.21,11.58,2.05"/><path class="cls-2" d="M40.87,263.3c.58-5,5.84-9.76,11.41-9.08,2.69.33,5.71,2.16,5.83,4.92.1,2.55-3.77,2.19-5.34,4.49,3.4-2.3,5.66-3.59,8-.63s-.21,5.59-2.86,7.15c-6,3.53-12.41,6.88-17.26,12"/><path class="cls-2" d="M54.46,269.13c-1.05-.43-3.52.21-4.57.58a5.21,5.21,0,0,0-1.89.9c-.63.49-.87,1.17-1.58,1.54"/><path class="cls-2" d="M49.66,258.87c-.1.5-4,4.51-3.9,4.51"/><path class="cls-2" d="M21.47,264.08c-1.11-2.16-4.51-2.75-6.87-3.4"/><path class="cls-2" d="M26.55,264.58c.34-.86-.73-3.73-1.08-4.74-.6-1.75-1.82-2.77-3.09-4.2"/><path class="cls-2" d="M30.45,260.08c-1.88-1.59-3.5-9.34-1-10.84-.1-.21-.25-.21-.46,0"/><path class="cls-2" d="M14.44,259.92c.2,3.1-6.76,2.55-5.91-1,.78-3.22,6.33-2.25,6.21.82.19.21.18.19,0,0"/><path class="cls-2" d="M16.08,252.75c1.84-2.81,8.27-.22,6,2.66C20.15,257.87,14.05,255.85,16.08,252.75Z"/><path class="cls-2" d="M34.59,246.15c1.7,2.75-3.3,6-5.17,3.09S32.67,243,34.59,246.15Z"/><path class="cls-2" d="M39,255a18,18,0,0,0-1.31,6.19"/><path class="cls-2" d="M26.14,282.94c2.89-1.4,6.18.14,8.31,1.89,0-1.17-.88-1.84-.7-3.13s.56-2,2-2.26a4,4,0,0,1,3.48,1.25c1.12,1.19.64,2.09.77,3.55-.68-5,10-2.54,5.79,3.09A4,4,0,0,0,44.57,290c-.06,1.1.24,2-.55,3-1.48,1.82-4.47,1.86-6.41.79-.9,2.56-4.73,1.34-6.36.24a4.59,4.59,0,0,1-2.2-2.6c-.35-1.2.52-2.44-.25-3.55-.53-.77-1.79-1.14-2.57-1.65C24.53,285.15,23.94,284,26.14,282.94Z"/><path class="cls-2" d="M40.49,294.81c.41.2,1.81,2.87,2.62,3.65a17.29,17.29,0,0,0,4.26,2.86,5.27,5.27,0,0,1-3.23.73c-1.47-.26-2-1.22-2.88-2.32a7,7,0,0,1-2-5.24"/><path class="cls-2" d="M22.29,252.54c2.69-1.38,5,0,6.39,2,.26-2.11.45-4.09,3.5-4.1a3.11,3.11,0,0,1,3.28,3.91c1.88-2.95,4.86-5.46,8.36-4.57,4.69,1.18,4.23,3.7,4.25,4.9"/><path class="cls-2" d="M14.54,266.89c-1.26-3.74,0-7.37,2.43-10.39"/><path class="cls-2" d="M150.28,41c.05-2.69-6.9-3.35-7-.72C143.22,42.7,150.22,44,150.28,41Z"/><path class="cls-2" d="M140.37,30.37c-.21.16-2.33,1.43-2.14,1.29,2.05-1.28,6.26-3.36,8.79-3.09,1.87.2,4.71,1.73,6.44.5,2.33-1.64-.23-4.54-2.54-4.48-2.75.07-5,2.53-6.79,4.19"/><path class="cls-2" d="M134.37,32.83a19.32,19.32,0,0,1,4.33-5.53c1.66-1.56,3.58-3.56,2.53-5.91s-4-2.08-5.26-.14c-1.53,2.3.93,4.56,2.54,6.14-.13.16-.27.13-.4-.07"/><path class="cls-2" d="M140.65,46.28c2.38-1,1.71-3.15-.2-4.14-1.6-.83-4.18,0-5.42-.76"/><path class="cls-2" d="M129.11,36.16c1.55-1,4.53-4.85,4.6-6.55a3.25,3.25,0,0,0-4.6-3.11"/><path class="cls-2" d="M109.24,53.83c-.18.17,15.12-9.14,22.51-11.64,3.81-1.29,11.16-1.62,12.39-6,1.52-5.47-6.54-4.82-9.71-3.3-4.31,2.06-8,5.32-12.1,7.71-5,2.93-15,10.66-14.92,10.45"/><path class="cls-2" d="M114.52,45.83a56.07,56.07,0,0,0,11.21-14.34c1.7-3,6-7.7,3.45-11.18-3.45-4.72-7.85,1.93-8.86,4.68A53.18,53.18,0,0,1,118,31.53a48.62,48.62,0,0,1-3.41,5c-2.88,4.1-5.42,7.88-8.6,11.83"/><path class="cls-2" d="M119.6,26.81c.73-3,.94-6.67-1.34-9.21-2.42-2.7-6.09-1.25-6.94,1.84-.78,2.82.67,5.84.42,8.72a22.09,22.09,0,0,1-3.18,9.21A25,25,0,0,0,105,47.5"/><path class="cls-2" d="M113.79,58c3.43,0,5.72-.51,9.14-.73,2.33-.15,4.81-.57,7.13-.19,3.81.64,6.54,4.34,10.67,3.82,1.71-.21,3.34-1.29,3.34-3,0-2.08-2.39-3.45-4.21-4.2-5.11-2.11-11.59-2.3-17.12-1.9-4.56.32-11,2.08-15.23,3.55"/><path class="cls-2" d="M133.49,52.16a28.47,28.47,0,0,1,10.25,0c2.43.37,5.51-.84,3.6-3.44-1.67-2.27-5.19-2.38-7.85-2.47s-5-.58-7.54-.77a36.23,36.23,0,0,0-9.22.81"/><path class="cls-2" d="M108.8,59.07c1.27.25,3,1.41,4.06.19,2.4-2.77-3.44-4.23-5.35-3.9,1.14-.61,2.59-2.71,1.65-3.88-1.48-1.83-3.15,1-4,1.7.5-1.35,1.22-2.74.69-4.18s-2.54-2.83-4.16-1.56-.4,3.33-1.08,4.94c-.79,1.85-2.71,2.5-1.3,4.66-1.76.73-5.79,1.74-5.56,4.14A8.17,8.17,0,0,1,96.1,63,7,7,0,0,1,99,60.14C101.84,58.51,105.67,58.45,108.8,59.07Z"/><path class="cls-2" d="M136.62,330.51c.28,2,2.1,3.67,3.49,5.1,2.7,2.75,6.07,4.53,9.54,6.39,3.26,1.75,6.29,3.89,9.61,5.55,3.07,1.55,6.17,2.78,9.05,4.61,4,2.55,7.17,6,10.42,9.36a32.11,32.11,0,0,0,6,4.71c1.3.86,3,2.19,4.58,2.58"/><path class="cls-2" d="M142.28,329.68c.75.17,1.71,8.07,1.79,9.31-1.62.08-2.9-1-4.65-1.17-1.53-.15-3,.16-4.46-.57"/><path class="cls-2" d="M150.34,333.71c.45,1.82.91,3.63,1.36,5.44.38,1.51.52,3.73,1.49,5-2-.07-4.37-.31-6.58-.36a24.67,24.67,0,0,0-3.33,0c-.92.11-2.88.07-3.56.48"/><path class="cls-2" d="M161.28,336.78c.61,2.46,1.71,4.64,2.54,7a28.36,28.36,0,0,1,1.58,6.72c-2.8.17-6-.89-8.94-.9-1.3,0-2.63.12-3.89.12a11.7,11.7,0,0,0-3.6.38"/><path class="cls-2" d="M171.59,343.56c1.11,4.41,2.54,8.92,2.88,13.28-1.48.75-3.86-.11-5.47-.22-2.05-.15-4.18-.52-6.19-.49-2.67,0-6.1.18-8.52-1.12a.51.51,0,0,1,.3.34"/><path class="cls-2" d="M153.57,358.85c-8.93-5.27-16.79-11.84-19.81-21.49-1.52-4.84-3-9.5-5.52-14,5.8,2.35,11.24,5.37,17.28,7.24,4.48,1.39,8.73,3.48,13.32,4.52,4.32,1,7.74,2.11,11.22,4.73,3.24,2.45,7.26,4.91,9.66,8.12s1.87,10.41-2,12.59c-1.85,1.06-4.63.91-6.72,1.08a42,42,0,0,1-8.61.19A25.46,25.46,0,0,1,153.57,358.85Z"/><path class="cls-2" d="M46.92,323.49c-1.76.38-5.65,1.4-6.1-1.24-.83-4.86,10-1.33,12-.35C51.82,323.39,48.6,323.13,46.92,323.49Z"/><path class="cls-2" d="M47.59,318.33c-1.43-1.16-4.24-4.58-1.86-6.14S51,313.8,52,315.35c.71,1.1,3,4.39,1.28,5.35S48.68,319.22,47.59,318.33Z"/><path class="cls-2" d="M66,294.79c3.19,1,3,3.5,1.41,5.65s-3.18,4-4,6.71c.16,0-.13-.11,0,0S59.09,292.72,66,294.79Z"/><path class="cls-2" d="M67.7,342.05c-1.72.08-8.94,4.87-8.79.42.13-3.91,7.13-1.77,8.79-.42Z"/><path class="cls-2" d="M79.34,313.1c1.68-1.64,4.4-3.66,6.45-1.21s-.73,4.69-3.29,5.33A25.35,25.35,0,0,0,75.22,320c.9-.85.89-1.75,1.27-2.84A11,11,0,0,1,79.34,313.1Z"/><path class="cls-2" d="M88.17,324.08c3.41,1.52,2,4.39-.32,6s-4.28,4.78-6.08,6.93C82.81,334.42,81.12,320.94,88.17,324.08Z"/><path class="cls-2" d="M81.77,337c1-3.29,7.63-9.42,10.8-4,1.51,2.57-2,3.15-4,3.06a14.85,14.85,0,0,0-6.8.94Z"/><path class="cls-2" d="M99.42,355.5c-1.6-2.38-.22-11.78,4.71-9.64,2.94,1.27,1.49,3.92-.46,5.16-2.18,1.38-3.27,2.14-4.25,4.48.1.19-.18.21,0,0Z"/><path class="cls-2" d="M63.72,355.47c-.73-2.76,2.36-4.43,5-4.34,1.85.07,5.07.68,6.5,1.71C73,354.82,65.21,361.14,63.72,355.47Z"/><path class="cls-2" d="M53.64,321.42a.59.59,0,0,1-.46.12c1.86-.05,5.37,2.39,6.87,3.51,1.76,1.31,3.66,2.62,5.27,4.08,3,2.71,5.91,5.36,8.61,8.28,1.24,1.35,2.26,2.88,3.39,4.28A51.78,51.78,0,0,0,81.78,346c3,2.94,6.22,5.5,9.22,8.39a66.29,66.29,0,0,0,5.4,4.68c.86.67,2.11,1.37,3,1.95a9,9,0,0,0,2.68,1.53c.19.19.17.19,0,0"/><path class="cls-2" d="M99.42,355.5c-.51,1.53,1.18,5.78,2.86,6.67a1.29,1.29,0,0,1-.72-.16"/><path class="cls-2" d="M75.13,352.75a25.76,25.76,0,0,0,4.87.53,51.35,51.35,0,0,1,6,1.09c2.75.63,7.57,2.42,9.55,4.29"/><path class="cls-2" d="M67.7,342.05c4-2.39,10.82,1.3,10.67,1.16"/><path class="cls-2" d="M81.77,337c-.62,2.19,1,10.19,2.39,11.31"/><path class="cls-2" d="M63.44,307.15c-.8,2-.24,4.23-.25,6.34a20.58,20.58,0,0,0,1.41,6.58,46.51,46.51,0,0,0,2.82,6.7c1.18,2.29,3,8.06,3,6.89"/><path class="cls-2" d="M75.54,319.73c-2.45,2-3.45,5.38-3.61,8.28-.13,2.42.29,6.63,1.38,8.82"/><path class="cls-2" d="M412.81,291.93c3.6-3.11-2.5-6.31-4.53-3.38C406.39,291.26,410.14,294.24,412.81,291.93Z"/><path class="cls-2" d="M411.46,285.15c.09-1.08-1-4.63-2.81-4.11s-2.77,4.38-2.78,5.8c-1,0-3.39-2.4-5.67-.26.89,1.62,1.1,3.37,4,4.33-1.46.19-2.91,4.23-2.91,4.23s4.77.95,6,.08c-.33,1.23,1.21,4.49,1.21,4.49s3.77-3,4.1-4.58c.92.48,1,1.7,3.22,1.82a6,6,0,0,0,2.87-1.3,16.1,16.1,0,0,0-1-2.13c-.46-.64-1.35-1.2-1.68-1.85,1.16.69,4.95-2,4.79-3.18-.19-1.4-4.42-1.78-5.38-.93a7.44,7.44,0,0,0,1.23-2.73A4.3,4.3,0,0,0,416,282a12,12,0,0,0-4.5,3.19Z"/><path class="cls-2" d="M389,283.09a11.58,11.58,0,0,1,3.8.54c.76.25,2.89.44,2.77.73"/><path class="cls-2" d="M387.26,289.1a38.26,38.26,0,0,0,5.54,1.11c1.45.16,4.63.68,5.9-.18.26,0,.25,0,0,0"/><path class="cls-2" d="M405.93,272.81c0,1.08-.81,1.89,1.73,8.7"/><path class="cls-2" d="M411.46,279.3a6.38,6.38,0,0,0,1.38-5.68"/><path class="cls-2" d="M396.59,301.73c.57-1.16,3.42-3.48,4.89-3.48.26,0,.24,0-.05,0"/><path class="cls-2" d="M407.45,297.33c-.55,2.37-1.78,5.62-6.15,9.25"/><path class="cls-2" d="M415.79,297c.53,2.78.69,6.38,5.61,8.88"/><path class="cls-2" d="M420.44,295.8c1.62.71,3.54,1.64,4.5,3.09"/><path class="cls-2" d="M422.91,287.83a7.89,7.89,0,0,0,7.91-1.58"/><path class="cls-2" d="M416.61,285.45c1.1-.87,5.2-3.75,8.67-3.3"/><path class="cls-2" d="M415.61,282.15c3.47-5.26,3.15-11.46-.27-16.69-1-1.48-2.74-4.81-5.12-4s-3.62,4.79-4.36,6.78c-1.33-1.61-2.4-4.49-4.45-5.42-2.59-1.17-4.3,1.74-5,3.56a16.4,16.4,0,0,0,.49,14,13.41,13.41,0,0,0,4.22,5.25"/><path class="cls-2" d="M412.15,295.41c-1.58,4.13,1.25,10.16,3.85,13.51,2.76,3.58,7.3,5,12,4.76a25.93,25.93,0,0,0-.68-3.23c-.19-.76-.88-2.23-.6-3,2,1,8.61,1.26,8.61,1.26s.63-5.26-.24-7.5c-2.62-6.77-8.68-10.28-15.74-10.55h.05"/><path class="cls-2" d="M426.67,292.25c3.37-.06,7.15-2.11,9.7-4.09s3.52-4,4.77-6.57c-1.91-2.36-7.34.53-9.85.26,1.42-2.86,5.91-4.27,5.34-7.86-1.3-.76-4.92-.85-6.45-.68a35.67,35.67,0,0,0-6.45.91,14.57,14.57,0,0,0-4.94,2.45c-1.66,1.35-1.7,3.51-2.84,5.16"/><path class="cls-2" d="M396.25,279.3c-1.53-4.39-9.91-3.84-13.57-2.72-1.27.39-4.64,1.61-4.41,3.1.32,2.13,5.68,3.91,7.48,5-3.92,1.33-12.29,5.29-6.06,9.35,4.1,2.66,11.08,3.47,15.84,2.1a21.13,21.13,0,0,0,6.25-3.56"/><path class="cls-2" d="M413.06,304c0-.25-3,8.25-11.22,9.91-1.78.36-3.18,2.1-4-.08s-.45-4.53-1.68-6.64a36.85,36.85,0,0,1-4.68,1.62,39,39,0,0,0-4.14,1.14c-2.07-2-.42-6.39.9-8.39s3.35-3.24,5.23-4.83"/><path class="cls-2" d="M115.64,337.88c.76,2.91,1,5.89,1.72,8.79.29,1.09,2.67,6,3.6,2.65.76-2.77-1.13-6-1.94-8.6-1.86-6,.35-13.89,4.08-19,1.59-2.15,4.28-4,4.63-6.79.51-4-3.86-2-5.53-.38-5.14,5-6.82,15.54-7,15.56A26.28,26.28,0,0,0,115.64,337.88Z"/><path class="cls-2" d="M115.83,326.69a18.16,18.16,0,0,1,1-11.48c.54-1.37,4.16-7.76,1.75-8.85s-5.1,4-5.59,5.43c-1,2.95-.72,6.13-.37,9.16a24.63,24.63,0,0,0,2.58,8.58c0,.18,0,.17,0,0"/><path class="cls-2" d="M112.54,321.29c-.75-2.28-1.62-4.71-3.62-6.35-1.45-1.18-4.09-2.09-5.52-.36-3,3.62,3.73,6.85,6.06,8.57a27.81,27.81,0,0,1,4.65,4.87c.16,0,.2-.07.13-.25"/><path class="cls-2" d="M114.89,333.83A19.65,19.65,0,0,1,114,332c-2.49-4-5.24-7.79-9.65-10.14-2.43-1.3-6-2.44-8.21-.18-2.57,2.64.69,5,3.15,6.13,3.47,1.64,7,3,10.18,5a30.48,30.48,0,0,1,6,4.82c0-.33-.18-.21-.36-.32"/><path class="cls-2" d="M198.74,17.32a55.87,55.87,0,0,1,12.13,3.41c1.77.77,6.61,1.7,6.29-1.58-.5-5.08-14.64-2-17.95-1.7Z"/><path class="cls-2" d="M181.12,20.3c2.72.85,5.5,3.14,7.66,4.94S192.25,29.93,195,31c2.52,1,4.55-.84,3.45-3.15-1.22-2.59-4.87-4.12-7.64-4.89-3.19-.89-6.56-2.2-9.86-2.12-.2.05-.55-.4-.4-.21Z"/><path class="cls-2" d="M184.92,19c3.11-1.11,5.36-3.1,7.66-5.25,1.68-1.56,5-3.91,4.46-6.44-.61-2.78-4.35-2.65-6.21-1.07-2.14,1.81-2,4.46-2.64,6.84A22.84,22.84,0,0,1,184.92,19Z"/><path class="cls-2" d="M167.27,26.44c3.46.28,8.65,2.29,11.17,4.65,1.44,1.35,2.09,5.39,4.9,5.09,3.36-.37-.16-4.86-1.33-5.77a15.14,15.14,0,0,0-5.92-2.53c-2.88-.66-6.26-1.77-9.16-1.29-.23.12-.22.12,0,0Z"/><path class="cls-2" d="M167.79,26.34c4.27-1.88,6.58-5.84,9.19-9.42,1.62-2.21,4.92-6.42,2.12-8.91-2.58-2.3-5.64-.11-6.5,2.4s-.52,5.49-1.24,8.17a20.62,20.62,0,0,1-4.05,8,.43.43,0,0,0,0-.4Z"/><path class="cls-2" d="M200.33,17.13c-2.86.88-6.42.7-9.4,1a43.85,43.85,0,0,0-9.7,2.39c-6.62,2.3-13,5.53-19.34,8.63l0,0"/><path class="cls-2" d="M326.05,28.86c-2.41.48-3.32-3.35-1.15-4.05C327.35,24,329.15,28.25,326.05,28.86Z"/><path class="cls-2" d="M344.53,34.19c-2.34-1.16.11-4.61,2.19-3.09C348.56,32.43,346.78,35.31,344.53,34.19Z"/><path class="cls-2" d="M312.78,54.24c-2.55.59-2.28-3-.28-3.53C315.28,49.93,315.25,53.67,312.78,54.24Z"/><path class="cls-2" d="M304.71,36.36c3.44.16,3.28,4.39.2,4.36C300,40.67,303.52,36.3,304.71,36.36Z"/><path class="cls-2" d="M329.46,65.44c-2-.39-2.24-4.12.1-3.84C331.54,61.84,332.13,66,329.46,65.44Z"/><path class="cls-2" d="M362.12,50.36c.78-2.5,4.51-.46,3.1,1.53s-3.72,1.18-4.93-.48c-.81-1.11-1.29-4,.14-5,2.57-1.69,2.7,2,2.76,3Z"/><path class="cls-2" d="M307.72,39.3c1.63,1.42,3.21,4.35,0,5.13-2.54.62-4.29-.73-3.92-3.46-.78,1.86-2.69,4.73-5.09,2.33a2.37,2.37,0,0,1,.16-3.21c.85-.7,2.33-.24,3.35-.2-1.93-.37-4.54-.39-4-3.12.65-3.2,3.4-1.21,5.11-.49-1-2-.74-6,2.62-4.6,2.22.9,3.1,4.29.81,5.52,2.35-1.18,3.49-3.06,4.79-.31,1.05,2.21-1.44,4.28-3.68,2.69"/><path class="cls-2" d="M324.5,28.77c-.16-.22-3.56,3.81-5.5.35-1.07-1.91,1.65-3.24,3.47-2.3-2.47-.54-4.39-2.76-1.93-4.45s4.74-.15,5.84,2.1c-.06-2,1.24-5.45,4.07-4,3.41,1.8-.55,4.21-2.39,5.11,2.11-1.1,5.64-1.17,4.71,2.27-.6,2.24-3.62,1.63-5.9.59,2.12.11,3.25,4.77.09,4.66a3.55,3.55,0,0,1-2.54-1.26c-.57-.66-1.29-1.55.42-2.8"/><path class="cls-2" d="M345.7,43.77c-1.55-1.4-3.26-.34-5.19-.1-1.72.21-3.5-.27-2.58-2.21.65-1.36,2.26-1.68,3.72-1.41,1.94.37,2.79,1.78,3.58,3.32.13.2.12.19,0,0"/><path class="cls-2" d="M344.4,34.52c.65,1.71-3.29,3.59-4.54,2-1.74-2.18.19-4.5,2.85-3.93-2.55,0-5.44-2.29-3.07-4.38,1.49-1.31,5.46,0,5.33,2,.35-2.23.45-6.14,4.19-4.75a2.39,2.39,0,0,1,1.59,3c-.36,1.57-1.62,1.95-3,2.7,1.77-.84,6.35-3.4,6.06.74-.17,2.5-4.42,2-6.18,1.34,1,.38,2.14,0,2.93.79s.31,1.79-.37,2.59c-1.45,1.69-5.51.9-4.9-2"/><path class="cls-2" d="M315.33,51.81c1.66-.41,5.2-.17,4.58,2.28-.5,2-3.92,2.11-5.18.76,1,1.39,1.31,3.5-.76,4.17s-4-1.34-3.2-3.07c-.5,2.46-4.26,1.53-5-.25a2.28,2.28,0,0,1,.41-2.5c.7-.73,3.24-1.53,3.9-.81-2.94-1.31-3.6-2.82-1.3-4.33s4.71.31,5.2,2.55c-.43-1.44-1-3.5,1.52-3.68,3.19-.23,3.21,2,2.78,2.9-.63,1.28-3.08,2-2.94,2"/><path class="cls-2" d="M329.87,65.64c1.31,1.29-.88,3.47-2.48,3-2.2-.62-3.07-3.51-.38-4.17-2.25,1.5-4.05-.69-3.7-2.67.56-3.14,3.41-1.7,5.21-.44a3.12,3.12,0,0,1,3.31-4.68c4.15.69,1.07,4.23-.61,5.59,1-1.64,4.36-4.42,5.81-1.56,1.35,2.67-2.72,3.91-4.88,3.73,2-.57,5.14.52,3.89,2.77-1.7,3-4.21.6-5.12-1.35"/><path class="cls-2" d="M332.53,68c-.9,1,.14,3.61,1.21,4.28,1.81,1.15,3.06-.68,2.45-2.29.78,1.36,1.73,3.2,3.71,2.48.89-.33,1.72-1.29,1.38-2.22-.26-.72-1.25-1-1.82-1.53,1.36.43,4.38,1.6,5.46.28,1.54-1.89-1.75-3.16-3.05-3.83,2.82,0,3.15-2.39,1.22-3.74-2.27-1.6-4.11-1-5.67.45"/><path class="cls-2" d="M311.43,36.14a57.94,57.94,0,0,1,9.29,1.63c3.51,1.16,6.56,3.54,9.45,5.43"/><path class="cls-2" d="M316.77,47c7.58-2.85,14.09-1.14,21.34,1.6A101.16,101.16,0,0,1,348.6,53c4.23,2.17,7.56,5.51,11.29,8.29a105.69,105.69,0,0,1,9.88,8.62l-.34-.17"/><path class="cls-2" d="M326.56,33.44a15.06,15.06,0,0,0,2.2,7.62c.78,1.28,3.32,4.56,4.15,5.64"/><path class="cls-2" d="M344.06,36.09c.63,7,4.2,12.74,8,19"/><path class="cls-2" d="M361.43,52.52c0,.9-.53,1.11-.73,2a8.1,8.1,0,0,0-.1,2.72c.18,2.37,1.84,5.33,3.36,7.27"/><path class="cls-2" d="M342.69,60.61c1.13-.82,3.43-.86,4.76-1a19.75,19.75,0,0,1,4.66-.25,28.24,28.24,0,0,1,7.4,1.68"/><path class="cls-2" d="M380.27,84c.09,1.58,3.54,4.06,4.7,5.18a65.79,65.79,0,0,1,5.29,5.54c3,3.65,6.34,7.13,9.36,10.55,7,8,11.76,18.18,16.18,27.59.95,2,1.6,4.11,2.67,6.07"/><path class="cls-2" d="M380.3,84.41c-2.71-1.6-5.44-1.72-8.51-2.25-1.82-.31-7.32-2.62-4.28-4.79,2.25-1.61,6.22.29,8.15,1.52a11.87,11.87,0,0,1,4.64,5.52c.2.15-.14.2,0,0"/><path class="cls-2" d="M385.51,90A52.91,52.91,0,0,0,375,88.89c-2.6.08-5.42,2.08-8,1.51-3.4-.76-1.54-4.32.74-5.21,2.47-1,6-.39,8.48.17,3.51.78,6.44,2.71,9.25,4.67.17-.12.23.13,0,0"/><path class="cls-2" d="M386.16,90.05a31.84,31.84,0,0,1-5-9.51c-.8-2.35-1.56-5,.7-6.91s4.92-1.3,5.91,1.23-.21,5.22-1,7.71-.45,5-.66,7.48c.12.16-.14.2,0,0"/><path class="cls-2" d="M394.16,99.33c-4-.93-8.12-2.79-12.23-3.13-3.81-.31-6.68,2.49-10.39,2.48-4.8,0-4-4.39-.51-5.9,4.23-1.85,9.46-.78,13.5,1a70.06,70.06,0,0,1,10.19,5.91c.17-.12.15-.24-.07-.37"/><path class="cls-2" d="M395,100.1c-2.48-4.63-5-10.07-4.58-15.36.24-3.36,1.91-8.2,5.79-9.44,4.37-1.39,7.21,3.32,5.8,6.67-1.33,3.18-4.56,5-5.53,8.48A64.28,64.28,0,0,0,395,100.1c.08.19-.21-.09,0,0"/><path class="cls-2" d="M402.57,108.37c-.14.21-.26.23-.38.06-2.71-5.57-4.06-11.58-1.92-17.54,1.12-3.14,3.87-7.29,7.64-8.22a4.46,4.46,0,0,1,5,6.7c-1.05,1.68-2.86,2.8-4.2,4.26a13.17,13.17,0,0,0-2.63,4.66c-1.28,3.46-3.06,6.69-3.74,10.32"/><path class="cls-2" d="M404,110.52c-5.76-2.25-13.13-4.55-19.45-4.47-3.45,0-7.16,2.33-9.82-.79-3.73-4.38,4.48-5.55,7.57-5.25a30.58,30.58,0,0,1,11.52,4c3.82,2.1,6.23,4.53,10.18,6.49"/><path class="cls-2" d="M408.59,118a.33.33,0,0,1-.52.07c-4.74-8-3.87-24,8.31-26.29,5.66-1.07,4.57,5.21,2.26,7.8-2.79,3.12-6.22,4.89-8.13,8.74-1.74,3.53-1.65,7.15-1.69,10.94a2,2,0,0,0-.19-.81"/><path class="cls-2" d="M415,130.68c-3.74-6.68-3.17-13.22.22-20.15,1.73-3.53,4.84-8.29,9.27-9.37,6-1.47,4.18,5.5,2,7.92-1.51,1.66-3.49,2.88-5,4.53a18.57,18.57,0,0,0-3.25,5.49A58.38,58.38,0,0,0,415,130.68c.12.17-.14.21,0,0"/><path class="cls-2" d="M415.72,132.46c-7.06-3.31-13.83-5.52-21.8-5.47-2.19,0-12.78,1.07-11.43-3.23,1.15-3.68,7.81-4.44,11.16-4.08,4,.44,8,2.16,11.52,3.82a23.56,23.56,0,0,1,10.55,9h0"/><path class="cls-2" d="M409.39,119.79c.21-.16.2.07,0,0a35.7,35.7,0,0,0-18.93-5.24c-3.09.07-6.33,1.46-9.42.84-4.53-.9-2.54-5,.82-6.08,5-1.55,12,1,16.68,2.67s7.18,5,10.85,7.81c-.1-.19,0,.22,0,0"/><path class="cls-2" d="M128,371.43c-2.42-1.11-10.91-5.88-12.52-1.68s7,7.35,10,8.66c-2.84,1.11-6,1.6-6.38,5.06s4.87,2.59,7.17,2.8c-1.71,1.22-6.43,3.8-2.8,5.73,1.85,1,5.6.47,7.63.08-1.26.58-3,.6-4,1.44-1.6,1.24-.5,2.48,1,3.11a11.83,11.83,0,0,0,3.86,1.08c1.5.05,3-.45,4.5-.39a8.55,8.55,0,0,0-3,1.17c-1.4,1.12-1.44,2.05.34,2.63,2.39.77,4.4.06,6.78,0-.91.24-2.61.89-2.64,1.95,0,1.47,2.61,1.58,3.72,1.62a20.1,20.1,0,0,0,9.62-2.5c3.18-1.61,7-2.34,9.78-4.49,2.14-1.65,4.49-3.14,6.47-4.95a10.1,10.1,0,0,1-1,.67"/><path class="cls-2" d="M128.24,371.58c-1.29-.56-2.6-2.83-1-3.74s3.84.54,4.34,1.84c-.85-2.15-1.35-6.18,2.65-5.34,3.59.75,6.24,3.3,8.59,5.67-.31-1.53-1.41-3.11-1.48-4.64-.09-1.79,1.89-3.2,3.78-3,3.23.38,6,5.66,7.14,8.09.35-2-1.07-8.31,3.55-5.89,3,1.56,3.23,6,4.75,8.56a4.23,4.23,0,0,0-.42-.25"/><path class="cls-2" d="M167.63,392.79c.17-3,1.37-5.89,1.09-9S167,377.9,166.29,375c-.47-1.88-.75-3.79-2.22-5.28-2.15-2.16-2.92-1.2-4.5,1"/><path class="cls-2" d="M123.89,372.24a6.63,6.63,0,0,1,2.43.77c1.1.49,2.25,1,3.29,1.62a51.18,51.18,0,0,0,5.22,2.4c3.89,1.65,7.82,3.42,11.67,5.19,1.9.88,3.79,2,5.74,2.82s4,1.62,6,2.52c1.66.76,3.22,1.9,4.79,2.82,2,1.17,4.33,1.86,6.31,3.06a48.81,48.81,0,0,0,5.95,2.89c1.34.56,3.65,1.37,5.18.89-.31.07-.33-.1-.62-.18"/><path class="cls-2" d="M134.21,369.61c.09.66,1.21,1.84,1.6,2.6.63,1.21,1.33,2.34,2,3.53,1,1.7,1.7,3.25,3.34,4.37a25.23,25.23,0,0,0-4.91.84c-1.76.3-4.54.6-6.08,1.43"/><path class="cls-2" d="M144,371.19a19.27,19.27,0,0,1,3.05,7.41c.27,1.53.92,4.13,2,5.32-.59.94-3.16,1.12-4.19,1.53-2.73,1.09-5.68,2.9-8.7,3l.29-.11"/><path class="cls-2" d="M152,374.9c.13-.15.13-.25,0-.3a15.72,15.72,0,0,0,1.28,3.95,45.52,45.52,0,0,1,1.45,5.1c.47,1.9,1.59,3-.53,4a74.16,74.16,0,0,1-6.92,3.25c-2.53.88-5,1.26-7.57,2"/><path class="cls-2" d="M157.12,376.6c2.19,3.07,3.26,6.89,4.54,10.34.3.83,2.84,3,2.23,3.89s-4.19,1.73-5.08,1.92c-3,.6-11.11,5.82-12.78,5.44"/><path class="cls-2" d="M33.74,210.62c3.29-1.37.4-4.89-2.42-4.28C27.59,207.14,30.32,212,33.74,210.62Z"/><path class="cls-2" d="M39.53,208.82c.65-.94.79-2.83-.2-3.56-1.82-1.33-4,.74-3.74,2.41C35.87,209.66,38.16,210.83,39.53,208.82Z"/><path class="cls-2" d="M33.45,206.36c1.78-.52,3.3-1.16,3-3.12a3.12,3.12,0,0,0-3.38-2.76,4.11,4.11,0,0,0-3,4.17c.38,2.13,2.91,2.17,4.76,1.86a2.45,2.45,0,0,1-.65.2Z"/><path class="cls-2" d="M19.82,193.62c1.7-3.78-4.89-4.43-5.78-1.36S18.49,196.59,19.82,193.62Z"/><path class="cls-2" d="M22.64,197.32a2.77,2.77,0,0,0,2-3.15c-.28-1.12-1.66-2.39-3-2C18.94,193,19.07,198.3,22.64,197.32Z"/><path class="cls-2" d="M19.41,200.25c3.15-2.14-.82-5.42-3.7-4.58C10.66,197.13,16.3,202.36,19.41,200.25Z"/><path class="cls-2" d="M14.22,191.93c-2-2.1-4.38.06-4.56,1.73a3.07,3.07,0,0,0,4,3.34"/><path class="cls-2" d="M16.68,189.63c0-1.89,2.57-2.93,4.19-1.95,1.37.82,1.93,3.9,0,4.39"/><path class="cls-2" d="M14.54,215.87c3-2.61-1.22-5.57-3.94-3.07C7.53,215.62,11.54,218.47,14.54,215.87Z"/><path class="cls-2" d="M20.11,197c2.12-.31,1.17,10.15,1,11.48-.2,1.76-.69,3.53-1,5.25a33.09,33.09,0,0,0-.41,5.92,73.55,73.55,0,0,0,1.14,13.27c.65,3.52,1,7.46,2.62,10.73-.49,0-.23-.28-.32-.65"/><path class="cls-2" d="M29.64,207.05a20.53,20.53,0,0,0-9.86,11"/><path class="cls-2" d="M15.86,214a9.52,9.52,0,0,1,3.92,4.05"/><path class="cls-2" d="M17.72,229.88c-1.89-2.9-5.6-6.63-9.77-5.49-3.63,1-4.54,5.1-3.13,8,1.69,3.41,5.67,4.52,9.3,5.45,3.31.85,6.5,4.05,9.36,5.81-.31-1.6-2.36-5.15-2.76-6.64A24.51,24.51,0,0,0,17.72,229.88Z"/><path class="cls-2" d="M24.3,243.64c3.33-3.49,5.17-7.73,7.74-11.68,1.75-2.7,6.42-6.08,6.25-9.45-.24-4.6-6.23-3.85-9-1.84-3.54,2.52-4.66,6.25-5.18,10.13A45.9,45.9,0,0,0,23.93,244c0,.26,0,.25,0,0Z"/><path class="cls-2" d="M267.56,26.26c-1.45,4,4.58,3.39,6.51,1.39-1.54.46-3.65,3-1.08,3.64,1.8.42,3.37-1.83,5.26-2.05a11.75,11.75,0,0,1,5.62,1.24c1.73.73,3.07,2.26,4.82,2.88,1.38-4.82-9.31-5.34-11.56-8.08-1.6-1.94,1.2-4.87-.63-6.88a1.85,1.85,0,0,0-2.7-.09c-1.27,1-.4,2.35-1,3.48s-1.75.88-2.71,1.38A5.63,5.63,0,0,0,267.56,26.26Z"/><path class="cls-2" d="M262.66,15.17c2.68,1.16,3.78,2.16,6.24,3"/><path class="cls-2" d="M256.33,18.64a23,23,0,0,1,8.42,2.8"/><path class="cls-2" d="M251.31,25.31c2.56,2.64,8,1,10.69,2.34"/><path class="cls-2" d="M254.3,31.73c2.05.24,3.71,1.05,5.95.63a44.17,44.17,0,0,0,5.84-1.63"/><path class="cls-2" d="M273.8,18.31a28.84,28.84,0,0,0-6.94-9.45c-2.35-2.07-5-2.6-7.74-4-2.41-1.21-4-3.4-6.77-4.13a10.38,10.38,0,0,0-8.46,1.88c-2.83,2.18-2,5.17-1,8-2.2-.87-9.94-2.58-12,2.79a6.4,6.4,0,0,0,0,5.57c1,1.66,2.87,2.05,4.71,2.51-5.39-.65-4.75,11.77,2.6,8.93-2.47,1.7-1.53,5.75.5,7.4,2.43,2,5.69.91,8.32,0"/><path class="cls-2" d="M249.59,14a3.77,3.77,0,0,0-5.46-1.43c-2.21,1.23-3.35,4.35-3.63,6.58-.39,3.08.85,9.43,5.64,8.57,0-.23-.16-.28-.43-.15"/><path class="cls-2" d="M244.82,23c.38,1.12-.68,3.63,2.36,5.24"/><path class="cls-2" d="M250.77,2.84a3.61,3.61,0,0,0,1.32,3.68c-2-1.4-4,.91-3.94,2.66,0,2.22,2.65,4.07,4.41,5.25-3.12-.07-7.21.5-8.48,3.54-1.5,3.64,2.41,7.5,5.71,9-3,1.42-5.66,3.42-5,6.84s3.65,5.58,7.22,5.92c7.37.69,15.13-3.93,20.18-8.33"/><path class="cls-2" d="M81.56,72.17c.77.7,2.2,2.24,3.48,1.75s1.08-2.42.64-3.38c-1.58-3.45-6.51-2.8-8.53-.11-3.94,5.2.26,14.47,7.91,12.51,7-1.8,12.63-8.53,8.94-15-2.91-5.08-9.53-9.86-16-8.06-8.46,2.35-11.77,8.42-10.92,16,1.77,0,3.52,1.82,5.11,2.49a16.93,16.93,0,0,1,5,2.67"/><path class="cls-2" d="M67.05,75.93c-3.71-1.58-8.41-4.34-7.8-8.55.12-.83.61-2.42-.62-2.88-1.42-.54-1.38,1.18-1.4,2.07,0,2.21,1.16,5.46-2.12,5.88-.58-1.37-1.25-3.15-2.6-4.06-1-.66-2.19-.75-2,.63s2.26,2.23,2.9,3.43c.76,1.44-.05,2.92.42,4.35s1.78,1.44,2.9,2.17c1.43,1,1.83,2.42,2.8,3.68,1.58,2.06,5.84,3,8.48,2.81,3.29-.23,7.59-1.76,9.93-3.89-.46,0-.54.2-.85.47"/><path class="cls-2" d="M66.88,86.83c-1.2.76-2.41,1.53-3.53,2.37a29.64,29.64,0,0,0-5.21,5.34,71.8,71.8,0,0,0-4.63,7.08c-.7,1.16-2.8,4.79-2.22,5.83"/><path class="cls-2" d="M55.22,99.26a.48.48,0,0,0-.28-.28c.78.55,3.76-.5,4.78-.58,1.78-.14,3.39-.32,5.18-.38a48.8,48.8,0,0,0,9.78-1c.23-.06.21-.06-.05,0"/><path class="cls-2" d="M63.39,89.35c-.2.08-.32.05-.35-.08,1.85.21,3.71-.55,5.59-.66,2.14-.13,4.29-.21,6.39-.18,1.55,0,2.89-.17,4.41-.06a13.3,13.3,0,0,0,5-.45c.23-.06.21,0,0,0"/><path class="cls-2" d="M53.56,90.66c.21.17.09,3.13.16,3.84.14,1.48.85,2.66,1.33,4.23.07.21.06.19,0,0"/><path class="cls-2" d="M91.22,63.74c6.18.77,12,4.45,11.62,10.85-.36,5.5-6.18,11.17-10.36,14.72a67.48,67.48,0,0,1-18,11,71.34,71.34,0,0,1-9.84,3.26c-3.28.82-7.16,1.21-10,3-5.43,3.28-3.23,12.06-11.77,11.59a14.28,14.28,0,0,0,6-5.81c1.42-2.67,1-5.24.88-8a30.14,30.14,0,0,1,1-8.26c.7-2.65,2.2-5.09,3.41-7.55a14.82,14.82,0,0,1,2.61-3.43,16.47,16.47,0,0,1,2.48-2.73"/><path class="cls-2" d="M431.49,221.91c1.54-.46,1.47-2.43-.51-2.58C429.33,219.2,428.66,222.75,431.49,221.91Z"/><path class="cls-2" d="M434,229.84c1.9-.68,1-4.54-1.17-3.73C430.83,226.84,431.58,230.69,434,229.84Z"/><path class="cls-2" d="M422.45,218.83c1.62-1.51-1.27-3.37-2.67-1.9C418.63,218.16,421.24,220,422.45,218.83Z"/><path class="cls-2" d="M422.85,224.3c1.91-1.68-1-4.05-2.56-2.42C419,223.27,421.19,225.76,422.85,224.3Z"/><path class="cls-2" d="M431.79,243.35c0,.18,0,.28.23.3a121.85,121.85,0,0,0,22.19-6.38c1.6-.64,5.87-3.48,2.24-4.78-2.06-.74-6.12,1.11-8.1,1.59"/><path class="cls-2" d="M431.82,243.1c-.21,0-.3,0-.26.18,7-3.71,14.42-7.2,20.75-11.84,3.51-2.58,9.88-7.62,9.13-12.31-.3-1.86-2.13-2.31-3.88-1.7-2.24.77-3.82,2.73-5.19,4.43a40.48,40.48,0,0,1-5.07,5.66c-2,1.73-4.21,3.2-6.31,4.8-3.74,2.83-6.79,6.29-10.55,9.11"/><path class="cls-2" d="M430.44,241.43c-.07.07,6.14-6.06,9.56-8.85,2.75-2.25,5.73-4.61,7.76-7.46a18.35,18.35,0,0,0,1.91-4.27c.77-1.92,1.87-3.77,2.25-5.81.24-1.29.24-3.49-1.55-3.9s-2.68,1.47-3.26,2.6c-1.4,2.72-2.54,5.51-4.15,8.16a99.73,99.73,0,0,1-6,8.55,84.07,84.07,0,0,1-8.31,9.61"/><path class="cls-2" d="M432.62,236c4.25-6.49,6.31-14.66,7.28-22.19.22-1.71,0-7.52-3.58-5.39-2.87,1.74-.72,6-1.15,8.43a63.22,63.22,0,0,1-2,9.28"/><path class="cls-2" d="M432.07,229.83c-.17,1.16-2.19,4.19-2.33,5.37-.76-.61-1.32-8.42-1.36-9.87a51.39,51.39,0,0,1,.17-7.21c.27-2.58.83-5.12,1.06-7.65s2.19-5.27,1-7.47c-8.53-4.47-7.87,14.79-7.36,18.36,0,.19.05.93.08.72"/><path class="cls-2" d="M423.32,224.08c.18,1,1.82,12.08,2.18,11.87"/><path class="cls-2" d="M427.8,241.74c-.05-3.26-1.63-5.36-4.05-7.65a48.45,48.45,0,0,1-6.38-7.54c-1.56-2.19-3.58-1.92-4.14.8-.78,3.82,1.73,7.9,4.76,10.36,2.37,1.94,5.36,3,8.11,4.39"/><path class="cls-2" d="M417.37,226.55c-.89-5.1-.92-7.23-1.49-10.25s1-5.79.71-8.74c-.29-3.17-3.63-.95-4.62.63-1.81,2.9-1,6.41-.07,9.43.81,2.54,1.13,5.26,2.53,7.58"/><path class="cls-2" d="M413.7,225.08c-2.18-3.1-4.39-6.17-5.26-9.82-.4-1.69-.92-5.16-3.59-5-3,.19-3,4.4-2.32,6.25.78,2.32,2.64,4.27,4,6.3a13.29,13.29,0,0,0,6.08,5.17c.16.07.23,0,.22-.2"/><path class="cls-2" d="M412.89,230.33c-3.25-2.58-5.43-5.8-7.78-9.05-1.42-1.95-3.46-3.26-6-1.7-2.88,1.79-.42,5.55,1.27,7.27,1.91,2,4.49,3.39,6.78,4.93a22.43,22.43,0,0,0,8,3.05"/><path class="cls-2" d="M400.07,235.08c.63,4,4.81,5.06,8.81,6s8,2.82,12.26,2c6.28-1.26-2.64-3.72-4.39-4.56-3.62-1.76-6.95-4.44-10.11-6.73-1.32-.95-3.44-1.81-5.12-.95S399.85,233.68,400.07,235.08Z"/><path class="cls-2" d="M420.72,243.2c-.21,1.12,1.39,4.82,1.92,5.57a8.08,8.08,0,0,0,3.58,2.51,10.93,10.93,0,0,1-1,4.56c-.47,1.2-1.29,3.12-2.32,3.93,2.41.46,3.61-.83,4.17-2.86a20.88,20.88,0,0,0,.59-3.25A10.16,10.16,0,0,1,428,251c6-.29,7.93-4.35,8.61-8"/><path class="cls-2" d="M423.64,244.42c.91-.84,2.39-.27,2.85-.08a3.5,3.5,0,0,1,1.93,2.29c0,.19,0,.18,0,0"/><path class="cls-2" d="M227.16,390.33c3.15-1.85-.9-5.41-3.57-4.22C220.43,387.52,224.29,392,227.16,390.33Z"/><path class="cls-2" d="M218.26,388.93c0,3.21,5,2.47,4.42-.68S218.24,385.87,218.26,388.93Z"/><path class="cls-2" d="M220.58,394.53c.81.89,3,.85,4,.35,2.36-1.21,1.06-3.16-1-3.8S218.9,392.67,220.58,394.53Z"/><path class="cls-2" d="M226.89,392.94a2.33,2.33,0,0,0,3.08,1.78,2.47,2.47,0,0,0,1.05-4.07C229.37,388.72,226.66,390.94,226.89,392.94Z"/><path class="cls-2" d="M232.76,389.2c2.16-1.36.15-4.76-2.17-3.6S230.13,390.86,232.76,389.2Z"/><path class="cls-2" d="M232.29,380.79c-1.18,1.47.21,4,2.08,2.11,1.62-1.62-.4-3.41-2.08-2.11Z"/><path class="cls-2" d="M228.53,384c2.13-2.56-3.25-3.75-4.43-1.44S227.18,385.64,228.53,384Z"/><path class="cls-2" d="M223.64,361.47c0-.26,0-.27,0,0,.83,1,.37,3.39.67,4.6"/><path class="cls-2" d="M224.58,370.93c.49,1.42-.05,3.41-.07,5.1,0,2.05.72,3.77.71,5.8"/><path class="cls-2" d="M213.83,379.47a23.9,23.9,0,0,1,3.8,4.73"/><path class="cls-2" d="M202.16,368.4c1.47.32,3.53,5,5.92,6.23"/><path class="cls-2" d="M196.89,389.51h0a12,12,0,0,0,2.55-.3c1-.06,2,0,2.9,0h0"/><path class="cls-2" d="M206.15,389.94c.66-1.15,11.53-.3,12.69.56"/><path class="cls-2" d="M221,394.83c-3.63,1-7.29,4.53-10.31,6.58a47.84,47.84,0,0,0-5.13,3.75c-.6.52-3.42,3.13-3.6,3"/><path class="cls-2" d="M223.76,395.66c0,2.33-.93,3.69-1.69,5.88-.31.9-.6,1.8-1,2.73s-.32,2.18-.92,2.76"/><path class="cls-2" d="M218,411.89c0-.26,0-.27,0,0-.6.86-.71,2.3-1,3.3-.28.83-.65,1.48-.85,2.3,0,.25,0,.23,0,0"/><path class="cls-2" d="M228.54,394.75c1.25,1.06,1.71,4.28,2.33,5.89a49.1,49.1,0,0,0,2.16,4.9"/><path class="cls-2" d="M234.7,414.08a8,8,0,0,1,1,2.9"/><path class="cls-2" d="M234.34,391.16c.26-.06,2.3,1.44,3.12,1.81s4,1.41,3.91,1.6"/><path class="cls-2" d="M233.25,389.26c-.51,2.36,3.46,3,4.55,1.2,1.3-2.11-3.19-4.14-4.19-1.84"/><path class="cls-2" d="M248.14,400.61a27.47,27.47,0,0,0,3.46,2.21"/><path class="cls-2" d="M240.39,387.71c-.29,0-.31,0,0,0,4.33-.18,8.12-2.79,12.22-3.78"/><path class="cls-2" d="M257.22,382a3.68,3.68,0,0,0,2.14-.63"/><path class="cls-2" d="M235.13,381.14a38.28,38.28,0,0,0,5-5.84c1.51-2.14,2.36-4.91,4-6.86"/><path class="cls-2" d="M246.8,361.4c-.72.5-1.86,3.16-1.82,2.91"/><path class="cls-2" d="M228.36,381.39c1.21-3.35,2.89-6.63,3.52-10.13a35.25,35.25,0,0,0,.11-11.55c-.34-2.37-.25-7.75-2.48-9.48s-3.23,4.24-3.67,5.63c.39-1.14,1.17-4.62-.91-4.85-1.77-.21-3,3.57-3,4.81-.14-1.25-.26-7.42-2.57-4.52-1.63,2.05-1.13,5.87-1.5,8.28-.75,4.89-.66,11.39,1,16.13,1,2.77,2.88,4.82,4.5,7.25"/><path class="cls-2" d="M220.46,385.54c-.36-3.41-.77-6.85-2.54-9.92-2.82-4.87-7.12-8.83-11.64-12.41-2.57-2-5-4.18-8.17-5.36-5.32-2-1.67,3.31.06,5-.93-1.24-2.62-.92-3.66-1.65-1.74,1.27,1.08,3.54,1.88,4.48-8.66.08.13,7.61,3,9.47,4,2.57,7.4,5.9,11.43,8.42a32.26,32.26,0,0,0,7.8,3c.06.2,0,.27-.32.24"/><path class="cls-2" d="M233.28,386.33c5.64-4.1,11-7.68,15.46-12.93,3.33-3.9,7.29-10,7-15.24-.18-3.54-3.93-1.29-5.39.24.18-1,2.54-4.88.33-5.07-1.77-.14-3.58,3.18-3.87,4.39-.2-1.41.57-2.89.37-4.41-2.45-.44-4.51,2.69-5.9,4.2A32.65,32.65,0,0,0,236,364.3a24.9,24.9,0,0,0-2.38,7.85c-.18,1.25-.48,2.49-.6,3.73-.15,1.47.49,2.89.31,4.31,0,.24,0,.22,0,0"/><path class="cls-2" d="M222.83,395.34a36.8,36.8,0,0,0-5.16,7.33c-1.85,3.08-3.54,6.24-5.16,9.46-1.21,2.39-2.77,4.53-3.67,7-.67,1.9-2.23,6.15.66,7.24.71-.8,1.57-1.28,2.24-2.11s1.1-2.18,1.87-2.88c-1.42,1.57-.34,3-.4,4.7,2.78.78,3.41-2.88,4.65-4-.08,1.26.2,3.49,1.46,4.29,1.67,1.06,2.26-1.32,2.78-2.53a47.19,47.19,0,0,0,3.22-11.19c.5-3.11,1-6.22,1.43-9.33.49-3.27,0-6-.42-9.24-.22-.05-.31,0-.28.3"/><path class="cls-2" d="M226.25,406.45c0-.27,0-.28,0,0,1.44,3.07,1.46,6.58,3.1,9.59a68.2,68.2,0,0,0,4.54,7.42c.88,1.21,3.42,4.55,5.2,2.94,1.5-1.36.3-4.95.17-6.64,1.31,1.24,1.49,3.26,3.84,2.82a7.05,7.05,0,0,0,.17-4.49c.66.48,1.29,1.57,2.37,1.26.43-2.57-.84-4.47-1.75-6.84a35.44,35.44,0,0,0-3.67-7c-1.48-2.18-3-4.32-4.41-6.54-1-1.56-2.39-4.14-4-5.09"/><path class="cls-2" d="M238.41,402.67c4.65,3.83,9.17,7.17,15,9.44,1.74.68,6.11,1.72,6.5-.91.3-2-2.69-4.36-3.74-5.91,1.11.51,2.53,1.5,3.62.8,1.76-1.13-.51-2.84-1.72-3.38a2.33,2.33,0,0,0,2,.48c.84-4-7.18-6.64-10-8.17a36.8,36.8,0,0,0-11.88-4"/><path class="cls-2" d="M242.73,392.16c3.79.38,8.51-1.44,12.1-2.4,2.51-.68,5.35-1.16,7.67-2.31,1.41-.69,5.93-2.79,5.85-4.47-.1-2.53-5.58-.14-6.84.34,1.54.13,6-3.17,5.08-4.57-1-1.58-4.09,0-5.29.43,1.56-.77,5.65-4.73,1.83-5.14-1.29-.13-2.88.56-4.14.8-1.41.27-2.81.48-4.19.84-5.66,1.52-10.06,4.24-14.91,7.2-2.14,1.31-4.35,2.52-5.91,4.44"/><path class="cls-2" d="M218.26,388.93c-2.85-3-5.18-3.84-9.44-4.67a54.74,54.74,0,0,0-10.54-1.3c-3.49,0-7,0-10.3,1.22-1.08.38-3.35,1.42-3.16,2.75.22,1.58,3.28,1.27,4.48,1.18-.8.56-3.29,1.17-2.72,2.52s3.16.36,4.11.1c-1.35.61-2.77.88-2.22,2.57.45,1.41,1.94,1.57,3.32,1.93,3,.78,6.89.3,10,0,5.79-.58,13.66-.92,18.13-2.39"/><path class="cls-2" d="M220.3,394c-1.42-.3-2.38.69-3.7,1.06s-2.86.78-4.29,1.09c-3.5.77-6.11,2.4-9.16,3.86-6.1,2.92-13.05,6.25-16.13,12.11,1.34,1.27,2.66.62,4.4,0a36.19,36.19,0,0,0,4.44-2c-1.27,1.4-3.57,2.63-3.17,4.67,2.39.27,3.78-.54,5.71-1.71-.81.7-2.13,2-1.81,3.06,3.71.59,7.33-3.1,10.43-4.64,3.43-1.7,7.48-4.85,8.17-4.87"/><path class="cls-2" d="M321.66,335.53c-.27,1.39-5.06,6.27-6.55,7.39s-3,2.49-4.57,3.46c-1.31.79-3,1.26-4.4,2-8.71,4.52-18.1,8.08-26.82,12.72-4.65,2.48-9.16,5.23-13.84,7.48-.23.19-.21.18,0,0"/><path class="cls-2" d="M311,333.25c-1.35-.35-3.58,13.21-5,15.19,1.82.61,3.83-.12,5.66-.38,2.49-.36,5.1-.18,7.52-.89"/><path class="cls-2" d="M301.29,336.17a30.89,30.89,0,0,1-3.08,10c-1.26,2.23-1.85,5.45-3.33,7.57,1.89,1,5.67.3,7.82.35,1,0,6.47.4,6.72,0"/><path class="cls-2" d="M292,343.69c-1.93,4.93-1.25,11.22-6.46,14.79,4.59,1,10.1.29,14.89.87"/><path class="cls-2" d="M274.87,363.6c11.36-.12,23.58-.07,34.12-4.51,8.56-3.61,16.23-11,17.45-19.82,1.13-8.15-5.4-13.43-14.12-12.55-9.8,1-17.86,7.57-23.19,14.74s-9.28,14.79-14.26,22.14c-.22-.14-.26.16,0,0Z"/></g></g></svg>