<svg xmlns="http://www.w3.org/2000/svg" xmlns:xlink="http://www.w3.org/1999/xlink" version="1.1" width="256" height="256" viewBox="0 0 256 256" xml:space="preserve">

<defs>
</defs>
<g style="stroke: none; stroke-width: 0; stroke-dasharray: none; stroke-linecap: butt; stroke-linejoin: miter; stroke-miterlimit: 10; fill: none; fill-rule: nonzero; opacity: 1;" transform="translate(1.4065934065934016 1.4065934065934016) scale(2.81 2.81)" >
	<path d="M 33.189 42.211 H 9.022 C 4.047 42.211 0 38.164 0 33.189 V 9.022 C 0 4.047 4.047 0 9.022 0 h 24.167 c 4.975 0 9.022 4.047 9.022 9.022 v 24.167 C 42.211 38.164 38.164 42.211 33.189 42.211 z M 9.022 8 C 8.458 8 8 8.458 8 9.022 v 24.167 c 0 0.563 0.458 1.022 1.022 1.022 h 24.167 c 0.563 0 1.022 -0.458 1.022 -1.022 V 9.022 C 34.211 8.458 33.752 8 33.189 8 H 9.022 z" style="stroke: none; stroke-width: 1; stroke-dasharray: none; stroke-linecap: butt; stroke-linejoin: miter; stroke-miterlimit: 10; fill: rgb(255,255,255); fill-rule: nonzero; opacity: 1;" transform=" matrix(1 0 0 1 0 0) " stroke-linecap="round" />
	<path d="M 80.979 42.211 H 56.811 c -4.975 0 -9.021 -4.047 -9.021 -9.022 V 9.022 C 47.789 4.047 51.836 0 56.811 0 h 24.168 C 85.953 0 90 4.047 90 9.022 v 24.167 C 90 38.164 85.953 42.211 80.979 42.211 z M 56.811 8 c -0.563 0 -1.021 0.458 -1.021 1.022 v 24.167 c 0 0.563 0.458 1.022 1.021 1.022 h 24.168 c 0.563 0 1.021 -0.458 1.021 -1.022 V 9.022 C 82 8.458 81.542 8 80.979 8 H 56.811 z" style="stroke: none; stroke-width: 1; stroke-dasharray: none; stroke-linecap: butt; stroke-linejoin: miter; stroke-miterlimit: 10; fill: rgb(255,255,255); fill-rule: nonzero; opacity: 1;" transform=" matrix(1 0 0 1 0 0) " stroke-linecap="round" />
	<path d="M 33.189 90 H 9.022 C 4.047 90 0 85.953 0 80.979 V 56.811 c 0 -4.975 4.047 -9.021 9.022 -9.021 h 24.167 c 4.975 0 9.022 4.047 9.022 9.021 v 24.168 C 42.211 85.953 38.164 90 33.189 90 z M 9.022 55.789 C 8.458 55.789 8 56.247 8 56.811 v 24.168 C 8 81.542 8.458 82 9.022 82 h 24.167 c 0.563 0 1.022 -0.458 1.022 -1.021 V 56.811 c 0 -0.563 -0.458 -1.021 -1.022 -1.021 H 9.022 z" style="stroke: none; stroke-width: 1; stroke-dasharray: none; stroke-linecap: butt; stroke-linejoin: miter; stroke-miterlimit: 10; fill: rgb(255,255,255); fill-rule: nonzero; opacity: 1;" transform=" matrix(1 0 0 1 0 0) " stroke-linecap="round" />
	<path d="M 80.979 90 H 56.811 c -4.975 0 -9.021 -4.047 -9.021 -9.021 V 56.811 c 0 -4.975 4.047 -9.021 9.021 -9.021 h 24.168 c 4.975 0 9.021 4.047 9.021 9.021 v 24.168 C 90 85.953 85.953 90 80.979 90 z M 56.811 55.789 c -0.563 0 -1.021 0.458 -1.021 1.021 v 24.168 c 0 0.563 0.458 1.021 1.021 1.021 h 24.168 C 81.542 82 82 81.542 82 80.979 V 56.811 c 0 -0.563 -0.458 -1.021 -1.021 -1.021 H 56.811 z" style="stroke: none; stroke-width: 1; stroke-dasharray: none; stroke-linecap: butt; stroke-linejoin: miter; stroke-miterlimit: 10; fill: rgb(255,255,255); fill-rule: nonzero; opacity: 1;" transform=" matrix(1 0 0 1 0 0) " stroke-linecap="round" />
</g>
</svg>