<svg xmlns="http://www.w3.org/2000/svg" viewBox="0 0 93.4 57.7"><defs><style>.cls-1{fill:#181c21;}</style></defs><g id="katman_2" data-name="katman 2"><g id="katman_1-2" data-name="katman 1"><g id="katman_2-2" data-name="katman 2"><g id="Layer_1" data-name="Layer 1"><path class="cls-1" d="M32.8,33c8.5-14.2,3.3-33,3.3-33s-.5,12.5-21.8,25.6S1.8,57.7,1.8,57.7c5.4-7.3,5.2-7.2,43.5-7.2L62.8,33ZM22.7,39C16.3,43.8,8.5,46,2.2,54.6c0,0,.4-9.6,14.4-19.8,8.2-6,17.4-17.4,19.6-26.5A34.37,34.37,0,0,1,22.7,39ZM68,33,50.4,50.5h7.9L75.9,33Zm9.3,1.5-4,4L85.5,50.6h7.9ZM69.6,50.3H75V44.9H69.6Z"/></g></g></g></g></svg>